# Blender 5.2.0 LTS
# www.blender.org
mtllib room.mtl
o White-material
v -2.500000 -0.000000 -0.575000
v -2.500000 -0.000000 -0.575000
v -0.000000 -0.000000 -0.575000
v -2.500000 2.500000 -0.575000
v -2.500000 2.500000 -0.575000
v -2.500000 2.500000 -0.575000
v -2.500000 2.500000 -0.575000
v -0.000000 2.500000 -0.575000
v -0.000000 2.500000 -0.575000
v -2.500000 5.000000 -0.575000
v -2.500000 5.000000 -0.575000
v -0.000000 5.000000 -0.575000
v 1.250000 -0.000000 -0.575000
v 1.250000 2.500000 -0.575000
v 2.500000 -0.000000 -0.575000
v 2.500000 -0.000000 -0.575000
v 2.500000 2.500000 -0.575000
v 2.500000 2.500000 -0.575000
v 5.000000 -0.000000 -0.575000
v 5.000000 2.500000 -0.575000
v 5.000000 2.500000 -0.575000
v 3.750000 2.500000 -0.575000
v 3.750000 2.500000 -0.575000
v 3.750000 2.500000 -0.575000
v 3.750000 -0.000000 -0.575000
v 3.750000 -0.000000 -0.575000
v 5.000000 5.000000 -0.575000
v 5.000000 5.000000 -0.575000
v 3.750000 5.000000 -0.575000
v -2.500000 0.000000 0.050000
v -2.500000 0.000000 0.050000
v -2.500000 2.500000 0.050000
v -2.500000 2.500000 0.050000
v -2.500000 2.500000 0.050000
v -2.500000 2.500000 0.050000
v -2.500000 5.000000 0.050000
v -2.500000 5.000000 0.050000
v -2.500000 0.000000 2.550000
v -2.500000 0.000000 2.550000
v -2.500000 2.500000 2.550000
v -2.500000 2.500000 2.550000
v -2.500000 2.500000 2.550000
v -2.500000 2.500000 2.550000
v -2.500000 5.000001 2.549999
v -2.500000 5.000001 2.549999
v -2.500000 0.000001 5.050001
v -2.500000 0.000001 5.050001
v -2.500000 2.500001 5.050000
v -2.500000 2.500001 5.050000
v -2.500000 2.500001 5.050000
v -2.500000 2.500001 5.050000
v -2.500000 5.000001 5.050000
v -2.500000 5.000001 5.050000
v -2.500000 0.000001 6.300001
v -2.500000 0.000001 6.300001
v -2.500000 2.500001 6.300001
v -2.500000 2.500001 6.300001
v -2.500000 2.500001 6.300001
v -2.500000 2.500001 6.300001
v -2.500000 5.000001 6.300001
v -2.500000 5.000001 6.300001
v -1.875000 0.000002 12.550002
v -1.875000 2.500002 12.550002
v -1.875000 2.500002 12.550002
v -1.875000 5.000002 12.550001
v -1.875000 0.000002 13.800002
v -1.875000 0.000002 13.800002
v -1.875000 2.500002 13.800002
v -1.875000 2.500002 13.800002
v -1.875000 2.500002 13.800002
v -1.875000 2.500002 13.800002
v -1.875000 5.000002 13.800001
v -1.875000 5.000002 13.800001
v -1.875000 0.000002 16.300001
v -1.875000 0.000002 16.300001
v -1.875000 2.500002 16.300001
v -1.875000 2.500002 16.300001
v -1.875000 2.500002 16.300001
v -1.875000 2.500002 16.300001
v -1.875000 5.000003 16.300001
v -1.875000 5.000003 16.300001
v -0.625000 0.000002 16.300001
v -0.625000 0.000002 16.300001
v -0.625000 2.500002 16.300001
v -0.625000 2.500002 16.300001
v -0.625000 2.500002 16.300001
v -0.625000 2.500002 16.300001
v -0.625000 5.000003 16.300001
v -0.625000 5.000003 16.300001
v 0.625000 0.000002 16.300001
v 0.625000 2.500002 16.300001
v 0.625000 2.500002 16.300001
v 0.625000 5.000003 16.300001
v 3.125000 0.000002 16.300001
v 3.125000 2.500002 16.300001
v 3.125000 2.500002 16.300001
v 3.125000 5.000003 16.300001
v 4.375000 0.000002 16.300001
v 4.375000 0.000002 16.300001
v 4.375000 2.500002 16.300001
v 4.375000 2.500002 16.300001
v 4.375000 2.500002 16.300001
v 4.375000 2.500002 16.300001
v 4.375000 5.000003 16.300001
v 4.375000 5.000003 16.300001
v 6.875000 0.000002 16.300001
v 6.875000 0.000002 16.300001
v 6.875000 2.500002 16.300001
v 6.875000 2.500002 16.300001
v 6.875000 2.500002 16.300001
v 6.875000 2.500002 16.300001
v 6.875000 5.000003 16.300001
v 6.875000 5.000003 16.300001
v 7.500000 0.000002 16.300001
v 7.500000 0.000002 16.300001
v 7.500000 2.500002 16.300001
v 7.500000 2.500002 16.300001
v 7.500000 2.500002 16.300001
v 7.500000 2.500002 16.300001
v 7.500000 5.000003 16.300001
v 7.500000 5.000003 16.300001
v 7.500000 0.000002 15.050002
v 7.500000 0.000002 15.050002
v 7.500000 2.500002 15.050002
v 7.500000 2.500002 15.050002
v 7.500000 2.500002 15.050002
v 7.500000 2.500002 15.050002
v 7.500000 5.000002 15.050001
v 7.500000 5.000002 15.050001
v 7.500000 0.000002 12.550002
v 7.500000 0.000002 12.550002
v 7.500000 2.500002 12.550002
v 7.500000 2.500002 12.550002
v 7.500000 2.500002 12.550002
v 7.500000 2.500002 12.550002
v 7.500000 5.000002 12.550001
v 7.500000 5.000002 12.550001
v 7.500000 0.000001 10.050001
v 7.500000 0.000001 10.050001
v 7.500000 2.500002 10.050001
v 7.500000 2.500002 10.050001
v 7.500000 2.500002 10.050001
v 7.500000 2.500002 10.050001
v 7.500000 5.000002 10.050000
v 7.500000 5.000002 10.050000
v 7.500000 0.000001 7.550001
v 7.500000 0.000001 7.550001
v 7.500000 2.500001 7.550001
v 7.500000 2.500001 7.550001
v 7.500000 2.500001 7.550001
v 7.500000 2.500001 7.550001
v 7.500000 5.000001 7.550001
v 7.500000 5.000001 7.550001
v 7.500000 5.000001 5.050000
v 7.500000 5.000001 5.050000
v 7.500000 0.000001 5.050001
v 7.500000 0.000001 5.050001
v 7.500000 2.500001 5.050000
v 7.500000 2.500001 5.050000
v 7.500000 2.500001 5.050000
v 7.500000 2.500001 5.050000
v 7.500000 0.000001 3.800000
v 7.500000 2.500001 3.800000
v 7.500000 2.500001 3.800000
v 7.500000 5.000001 3.800000
v 6.875000 0.000001 3.800000
v 6.875000 0.000001 3.800000
v 6.875000 2.500001 3.800000
v 6.875000 2.500001 3.800000
v 6.875000 2.500001 3.800000
v 6.875000 2.500001 3.800000
v 6.875000 5.000001 3.800000
v 6.875000 5.000001 3.800000
v 6.875000 0.000000 2.550000
v 6.875000 2.500000 2.550000
v 6.875000 2.500000 2.550000
v -5.000000 0.000001 6.300001
v -5.000000 0.000001 6.300001
v -5.000000 2.500001 6.300001
v -5.000000 2.500001 6.300001
v -5.000000 2.500001 6.300001
v -5.000000 5.000001 6.300001
v -6.250000 2.500001 6.300001
v -6.250000 5.000001 6.300001
v -5.625000 0.000001 6.300001
v -5.625000 2.500001 6.300001
v -6.250000 2.500001 6.925001
v -6.250000 2.500001 6.925001
v -6.250000 5.000001 6.925001
v -6.250000 5.000001 6.925001
v -6.250000 2.500001 9.425002
v -6.250000 5.000002 9.425001
v 6.875000 3.125001 2.550000
v 6.875000 3.125001 2.550000
v 6.875000 5.000001 2.549999
v 6.875000 5.000001 2.549999
v 5.937500 5.000000 0.987500
v 5.937500 5.000000 0.987500
v 5.937500 3.125001 0.987500
v 5.937500 3.125001 0.987500
v -3.125000 0.000002 13.800002
v -3.125000 0.000002 13.800002
v -3.125000 2.500002 13.800002
v -3.125000 2.500002 13.800002
v -3.125000 5.000002 13.800001
v -3.125000 1.875002 13.800002
v -3.125000 2.500002 16.300001
v -3.125000 2.500002 16.300001
v -3.125000 2.500002 16.300001
v -3.125000 2.500002 16.300001
v -3.125000 5.000003 16.300001
v -3.125000 5.000003 16.300001
v -3.125000 1.875002 16.300001
v -3.125000 1.875002 16.300001
v -3.125000 2.500003 18.800001
v -3.125000 2.500003 18.800001
v -3.125000 2.500003 18.800001
v -3.125000 2.500003 18.800001
v -3.125000 5.000003 18.800001
v -3.125000 5.000003 18.800001
v -3.125000 1.875003 18.800001
v -3.125000 1.875003 18.800001
v -3.125000 2.500003 21.300001
v -3.125000 2.500003 21.300001
v -3.125000 2.500003 21.300001
v -3.125000 2.500003 21.300001
v -3.125000 5.000003 21.300001
v -3.125000 5.000003 21.300001
v -3.125000 1.875003 21.300001
v -3.125000 1.875003 21.300001
v -3.125000 2.500003 21.925001
v -3.125000 2.500003 21.925001
v -3.125000 2.500003 21.925001
v -3.125000 2.500003 21.925001
v -3.125000 5.000003 21.925001
v -3.125000 5.000003 21.925001
v -3.125000 0.000003 21.300001
v -3.125000 1.875002 14.425002
v -3.125000 1.875002 15.050002
v -3.125000 1.875002 15.675002
v -3.125000 1.875003 16.925001
v -3.125000 1.875003 17.550001
v -3.125000 1.875003 18.175001
v -3.125000 1.875003 19.425001
v -3.125000 1.875003 20.050001
v -3.125000 0.000002 14.425002
v -3.125000 0.000002 15.675002
v -3.125000 0.000002 17.550001
v -3.125000 0.000002 16.300001
v -3.125000 1.250002 13.800002
v -3.125000 0.000002 18.175001
v -3.125000 0.000003 19.425001
v -3.125000 0.000003 20.050001
v -3.281250 0.000002 15.675002
v -3.281250 0.000002 16.300001
v -3.281250 1.250002 13.800002
v -3.281250 0.000002 13.800002
v -3.281250 0.000002 13.800002
v -3.281250 0.000002 14.425002
v -3.281250 0.000002 17.550001
v -3.281250 0.000002 18.175001
v -3.281250 0.000003 19.425001
v -3.281250 0.000003 20.050001
v -3.125000 0.000003 21.925001
v -3.125000 0.000003 21.925001
v -3.750000 2.500003 21.925001
v -3.750000 2.500003 21.925001
v -3.750000 2.500003 21.925001
v -3.750000 2.500003 21.925001
v -3.750000 5.000003 21.925001
v -3.750000 5.000003 21.925001
v -3.750000 0.000003 21.925001
v -3.750000 0.000003 21.925001
v -5.000000 2.500003 21.925001
v -5.000000 2.500003 21.925001
v -5.000000 5.000003 21.925001
v -5.000000 5.000003 21.925001
v -6.250000 2.500003 21.925001
v -6.250000 2.500003 21.925001
v -6.250000 2.500003 21.925001
v -6.250000 2.500003 21.925001
v -6.250000 5.000003 21.925001
v -6.250000 5.000003 21.925001
v -6.250000 0.000003 21.925001
v -6.250000 0.000003 21.925001
v -6.875000 2.500003 21.925001
v -6.875000 2.500003 21.925001
v -6.875000 5.000003 21.925001
v -6.875000 0.000003 21.925001
v -6.875000 0.000003 21.925001
v -7.500000 2.500003 21.925001
v -7.500000 0.000003 21.925001
v -7.500000 0.000003 21.925001
v -8.125000 2.500003 21.925001
v -8.125000 0.000003 21.925001
v -6.250000 0.000002 16.300001
v -6.250000 0.000002 16.300001
v -8.750000 0.000002 16.300001
v -8.750000 0.000002 16.300001
v -6.250000 2.500002 16.300001
v -6.250000 2.500002 16.300001
v -6.250000 2.500002 16.300001
v -6.250000 2.500002 16.300001
v -8.750000 2.500002 16.300001
v -8.750000 2.500002 16.300001
v -8.750000 2.500002 16.300001
v -8.750000 2.500002 16.300001
v -6.250000 5.000003 16.300001
v -6.250000 5.000003 16.300001
v -8.750000 5.000003 16.300001
v -8.750000 5.000003 16.300001
v -6.250000 0.000002 17.550001
v -6.250000 0.000002 17.550001
v -8.750000 0.000002 17.550001
v -8.750000 0.000002 17.550001
v -6.250000 2.500003 17.550001
v -6.250000 2.500003 17.550001
v -6.250000 2.500003 17.550001
v -6.250000 2.500003 17.550001
v -8.750000 2.500003 17.550001
v -8.750000 2.500003 17.550001
v -8.750000 2.500003 17.550001
v -8.750000 2.500003 17.550001
v -6.250000 5.000003 17.550001
v -6.250000 5.000003 17.550001
v -8.750000 5.000003 17.550001
v -8.750000 5.000003 17.550001
v -4.375000 2.500003 21.925001
v -4.375000 2.500003 21.925001
v -4.375000 5.000003 21.925001
v -4.375000 5.000003 21.925001
v -5.000000 4.375003 21.925001
v -5.000000 4.375003 21.925001
v -4.375000 4.375003 21.925001
v -4.375000 4.375003 21.925001
v 7.500000 5.000001 3.800000
v 7.500000 0.000001 3.800000
v 7.500000 2.500001 3.800000
v 7.500000 2.500001 3.800000
v 5.000000 3.125000 -0.575000
v 5.000000 3.125000 -0.575000
v -6.875000 1.250003 21.925001
v -6.875000 1.250003 21.925001
v -7.500000 1.250003 21.925001
v -7.500000 1.250003 21.925001
vn -0.0000 -0.0000 1.0000
vn 1.0000 -0.0000 -0.0000
vn -0.0000 -0.0000 -1.0000
vn -1.0000 -0.0000 -0.0000
vn -0.8575 -0.0000 0.5145
vn -0.0000 -1.0000 -0.0000
vt 0.500000 0.500000
vt 0.000000 0.000000
vt 0.000000 0.500000
vt 0.000000 1.000000
vt 0.250000 0.500000
vt 0.750000 1.000000
vt 1.000000 0.500000
vt 0.750000 0.500000
vt 0.500000 1.000000
vt 0.750000 0.875000
vt 0.874999 0.000000
vt 0.875000 0.500000
vt 0.999999 0.000000
vt 0.999999 0.500000
vt 0.250000 1.000000
vt 0.750000 0.000000
vt 1.000109 0.000000
vt 0.750109 0.500000
vt 1.000109 0.500000
vt 1.000000 -0.000977
vt 0.750000 0.499023
vt 1.000000 0.499023
vt 0.500000 0.999023
vt 0.750000 0.999023
vt 0.875000 0.000000
vt 1.000000 0.000000
vt 0.500000 0.000000
vt 0.500000 0.500000
vt 0.250000 1.000000
vt 0.000000 0.500000
vt 0.250000 0.500000
vt 0.000000 1.000000
vt 0.000000 0.875000
vt 0.500000 0.375000
vt 0.812500 0.000000
vt 0.500000 0.000000
vt 0.875000 0.125000
vt 1.000000 0.125000
vt 0.875000 0.250000
vt 1.000000 0.250000
vt 0.750000 0.375000
vt 1.000000 0.375000
vt 1.000000 0.375000
vt 0.875000 0.375000
vt 0.500000 0.375000
vt 0.500000 0.125000
vt 0.625000 0.375000
vt 0.875000 0.500000
vt 0.750000 0.500000
vt 0.750000 0.375000
vt 0.625000 0.375000
vt 0.625000 0.000000
vt 0.625000 0.500000
vt 0.875000 1.000000
vt 0.750000 0.625000
vt 1.000000 1.000000
vt 1.000000 0.000000
vt 0.625000 0.500000
vt 0.625000 0.250000
vt 0.750000 0.500000
vt 0.750000 0.250000
vt 0.875000 0.500000
vt 0.875000 0.000000
vt 0.750000 0.125000
vt 0.687500 0.375000
vt 0.687500 0.000000
vt 1.000000 1.000000
vt 0.750109 0.000000
vt 0.750000 -0.000977
vt 0.500000 0.499023
vt 0.812500 0.375000
vt 0.625000 0.125000
vt 0.750000 0.250000
vt 0.500000 0.250000
vt 0.625000 0.250000
vt 0.625000 0.375000
vt 0.625000 0.000000
vt 0.500000 0.000000
vt 0.875000 0.500000
vt 0.750000 0.500000
vt 0.750000 0.000000
vt 1.000000 0.375000
s 0
usemtl White
f 3/1/1 4/2/1 1/3/1
f 8/1/1 10/2/1 5/3/1
f 13/4/1 18/5/1 14/3/1
f 25/6/1 20/7/1 22/8/1
f 15/9/1 23/8/1 17/1/1
f 340/10/1 27/8/1 29/1/1
f 6/11/2 30/8/2 2/12/2
f 11/13/2 32/12/2 7/14/2
f 33/1/2 38/4/2 31/9/2
f 36/1/2 40/4/2 34/9/2
f 41/1/2 46/4/2 39/9/2
f 44/1/2 48/4/2 42/9/2
f 49/1/2 55/15/2 47/9/2
f 52/1/2 58/15/2 50/9/2
f 63/16/2 66/1/2 62/8/2
f 65/17/2 68/18/2 64/19/2
f 69/1/2 74/4/2 67/9/2
f 72/1/2 76/4/2 70/9/2
f 78/16/3 82/1/3 75/8/3
f 81/20/3 84/21/3 79/22/3
f 85/1/3 90/15/3 83/9/3
f 88/21/3 91/23/3 86/24/3
f 95/5/3 98/4/3 94/15/3
f 97/5/3 100/4/3 96/15/3
f 101/1/3 106/4/3 99/9/3
f 104/1/3 108/4/3 102/9/3
f 109/25/3 115/8/3 107/12/3
f 112/26/3 118/12/3 110/7/3
f 116/1/4 122/15/4 114/9/4
f 120/5/4 124/4/4 117/15/4
f 125/27/4 130/3/4 123/1/4
f 128/27/4 132/3/4 126/1/4
f 133/27/4 138/3/4 131/1/4
f 136/27/4 140/3/4 134/1/4
f 141/27/4 146/3/4 139/1/4
f 144/27/4 148/3/4 142/1/4
f 154/28/4 338/29/4 158/9/4
f 149/27/4 156/30/4 147/1/4
f 159/31/4 337/32/4 157/15/4
f 152/27/4 160/30/4 150/1/4
f 163/25/1 166/8/1 162/12/1
f 165/26/1 168/12/1 164/7/1
f 170/1/4 174/15/4 167/9/4
f 173/5/4 195/3/4 193/33/4
f 56/28/1 177/4/1 54/9/1
f 60/1/1 179/4/1 57/9/1
f 180/26/1 185/12/1 178/7/1
f 184/25/2 187/8/2 183/12/2
f 189/1/2 191/4/2 188/9/2
f 341/34/5 197/35/5 28/36/5
f 240/37/4 213/38/4 207/26/4
f 203/4/4 211/1/4 205/3/4
f 243/39/4 221/40/4 215/38/4
f 208/4/4 219/1/4 212/3/4
f 245/41/4 229/42/4 223/40/4
f 216/4/4 227/1/4 220/3/4
f 224/12/4 235/26/4 228/25/4
f 249/43/6 254/44/6 247/44/6
f 202/45/3 256/46/3 250/46/3
f 246/47/6 257/45/6 201/45/6
f 251/48/6 260/49/6 248/49/6
f 253/50/6 262/51/6 252/51/6
f 231/52/4 230/46/4 264/53/4
f 265/54/3 266/7/3 233/12/3
f 234/12/3 270/26/3 236/25/3
f 332/55/3 278/56/3 282/7/3
f 284/7/3 279/57/3 274/16/3
f 285/1/3 289/58/3 342/59/3
f 280/60/3 288/25/3 283/16/3
f 290/58/3 344/61/3 343/59/3
f 345/61/3 295/62/3 294/63/3
f 299/9/3 302/3/3 297/4/3
f 306/9/3 309/3/3 303/4/3
f 298/15/4 322/1/4 304/5/4
f 305/4/4 327/5/4 310/3/4
f 300/5/2 313/4/2 296/15/2
f 308/1/2 318/15/2 301/9/2
f 316/28/1 314/4/1 312/9/1
f 320/4/1 324/1/1 326/3/1
f 267/53/3 328/8/3 334/64/3
f 335/64/3 276/25/3 330/16/3
f 199/65/5 196/26/5 198/66/5
f 3/1/1 9/27/1 4/2/1
f 8/1/1 12/27/1 10/2/1
f 13/4/1 16/15/1 18/5/1
f 25/6/1 19/67/1 20/7/1
f 15/9/1 26/6/1 23/8/1
f 29/1/1 24/9/1 340/10/1
f 24/9/1 21/6/1 340/10/1
f 6/11/2 35/16/2 30/8/2
f 11/13/2 37/25/2 32/12/2
f 33/1/2 43/3/2 38/4/2
f 36/1/2 45/3/2 40/4/2
f 41/1/2 51/3/2 46/4/2
f 44/1/2 53/3/2 48/4/2
f 49/1/2 59/5/2 55/15/2
f 52/1/2 61/5/2 58/15/2
f 63/16/2 71/27/2 66/1/2
f 65/17/2 73/68/2 68/18/2
f 69/1/2 77/3/2 74/4/2
f 72/1/2 80/3/2 76/4/2
f 78/16/3 87/27/3 82/1/3
f 81/20/3 89/69/3 84/21/3
f 85/1/3 92/5/3 90/15/3
f 88/21/3 93/70/3 91/23/3
f 95/5/3 103/3/3 98/4/3
f 97/5/3 105/3/3 100/4/3
f 101/1/3 111/3/3 106/4/3
f 104/1/3 113/3/3 108/4/3
f 109/25/3 119/16/3 115/8/3
f 112/26/3 121/25/3 118/12/3
f 116/1/4 127/5/4 122/15/4
f 120/5/4 129/3/4 124/4/4
f 125/27/4 135/2/4 130/3/4
f 128/27/4 137/2/4 132/3/4
f 133/27/4 143/2/4 138/3/4
f 136/27/4 145/2/4 140/3/4
f 141/27/4 151/2/4 146/3/4
f 144/27/4 153/2/4 148/3/4
f 154/28/4 336/31/4 338/29/4
f 149/27/4 161/2/4 156/30/4
f 159/31/4 339/30/4 337/32/4
f 152/27/4 155/2/4 160/30/4
f 163/25/1 169/16/1 166/8/1
f 165/26/1 172/25/1 168/12/1
f 170/1/4 175/5/4 174/15/4
f 176/4/4 171/15/4 193/33/4
f 171/15/4 173/5/4 193/33/4
f 56/28/1 181/30/1 177/4/1
f 60/1/1 182/3/1 179/4/1
f 180/26/1 186/25/1 185/12/1
f 184/25/2 190/16/2 187/8/2
f 189/1/2 192/3/2 191/4/2
f 341/34/5 200/71/5 197/35/5
f 207/26/4 204/27/4 239/64/4
f 204/27/4 206/46/4 238/72/4
f 238/72/4 239/64/4 204/27/4
f 239/64/4 240/37/4 207/26/4
f 203/4/4 209/9/4 211/1/4
f 215/38/4 210/46/4 242/73/4
f 210/46/4 214/74/4 241/75/4
f 241/75/4 242/73/4 210/46/4
f 242/73/4 243/39/4 215/38/4
f 208/4/4 217/9/4 219/1/4
f 223/40/4 218/74/4 245/41/4
f 218/74/4 222/34/4 244/76/4
f 244/76/4 245/41/4 218/74/4
f 216/4/4 225/9/4 227/1/4
f 224/12/4 232/7/4 235/26/4
f 249/43/6 255/43/6 254/44/6
f 202/45/3 258/45/3 256/46/3
f 246/47/6 259/47/6 257/45/6
f 251/48/6 261/48/6 260/49/6
f 253/50/6 263/50/6 262/51/6
f 226/27/4 230/46/4 231/52/4
f 230/46/4 237/1/4 264/53/4
f 265/54/3 272/67/3 266/7/3
f 234/12/3 268/7/3 270/26/3
f 282/7/3 277/8/3 332/55/3
f 332/55/3 275/6/3 278/56/3
f 269/27/3 273/1/3 329/52/3
f 273/1/3 284/7/3 274/16/3
f 329/52/3 273/1/3 274/16/3
f 286/77/3 281/78/3 342/59/3
f 281/78/3 285/1/3 342/59/3
f 280/60/3 287/79/3 288/25/3
f 290/58/3 292/80/3 344/61/3
f 294/63/3 291/81/3 345/61/3
f 345/61/3 293/80/3 295/62/3
f 299/9/3 307/1/3 302/3/3
f 306/9/3 311/1/3 309/3/3
f 298/15/4 315/9/4 322/1/4
f 305/4/4 323/15/4 327/5/4
f 300/5/2 319/3/2 313/4/2
f 308/1/2 325/5/2 318/15/2
f 316/28/1 321/30/1 314/4/1
f 320/4/1 317/9/1 324/1/1
f 331/16/3 271/52/3 334/64/3
f 271/52/3 267/53/3 334/64/3
f 335/64/3 333/37/3 276/25/3
f 199/65/5 194/82/5 196/26/5
o Dark-material
v -0.000000 -0.000000 -0.575000
v -0.000000 2.500000 -0.575000
v -0.000000 2.500000 -0.575000
v -0.000000 5.000000 -0.575000
v 1.250000 -0.000000 -0.575000
v 1.250000 2.500000 -0.575000
v 1.250000 2.500000 -0.575000
v 1.250000 5.000000 -0.575000
v 5.000000 -0.000000 -0.575000
v 5.000000 -0.000000 -0.575000
v 5.000000 2.500000 -0.575000
v 5.000000 2.500000 -0.575000
v -1.875000 0.000002 12.550002
v -1.875000 2.500002 12.550002
v -1.875000 2.500002 12.550002
v -1.875000 5.000002 12.550001
v 0.625000 0.000002 16.300001
v 0.625000 2.500002 16.300001
v 0.625000 2.500002 16.300001
v 0.625000 5.000003 16.300001
v 1.250000 0.000002 16.300001
v 1.250000 0.000002 16.300001
v 1.250000 0.000002 16.300001
v 1.250000 2.500002 16.300001
v 1.250000 2.500002 16.300001
v 1.250000 2.500002 16.300001
v 1.250000 2.500002 16.300001
v 1.250000 5.000003 16.300001
v 1.250000 5.000003 16.300001
v 1.250000 1.250002 16.300001
v 1.250000 1.250002 16.300001
v 1.250000 1.250002 16.300001
v 1.250000 1.250002 16.300001
v 2.500000 0.000002 16.300001
v 2.500000 0.000002 16.300001
v 2.500000 0.000002 16.300001
v 2.500000 2.500002 16.300001
v 2.500000 2.500002 16.300001
v 2.500000 2.500002 16.300001
v 2.500000 2.500002 16.300001
v 2.500000 5.000003 16.300001
v 2.500000 5.000003 16.300001
v 2.500000 1.250002 16.300001
v 2.500000 1.250002 16.300001
v 2.500000 1.250002 16.300001
v 2.500000 1.250002 16.300001
v 1.250000 0.000002 16.925001
v 1.250000 0.000002 16.925001
v 1.250000 0.000002 16.925001
v 1.250000 1.250002 16.925001
v 1.250000 1.250002 16.925001
v 1.250000 1.250002 16.925001
v 2.500000 0.000002 16.925001
v 2.500000 0.000002 16.925001
v 2.500000 0.000002 16.925001
v 2.500000 1.250002 16.925001
v 2.500000 1.250002 16.925001
v 2.500000 1.250002 16.925001
v 3.125000 0.000002 16.300001
v 3.125000 2.500002 16.300001
v 3.125000 2.500002 16.300001
v 3.125000 5.000003 16.300001
v 6.875000 0.000000 2.550000
v 6.875000 0.000000 2.550000
v 6.875000 2.500000 2.550000
v -6.250000 0.000001 6.300001
v -6.250000 2.500001 6.300001
v -6.250000 0.000001 6.925001
v -6.250000 0.000001 6.925001
v -6.250000 2.500001 6.925001
v -6.250000 2.500001 6.925001
v -6.250000 0.000001 9.425002
v -6.250000 0.000001 9.425002
v -6.250000 2.500001 9.425002
v -6.250000 2.500001 9.425002
v -6.250000 2.500001 9.425002
v -6.250000 5.000002 9.425001
v -3.125000 0.000002 12.550002
v -3.125000 0.000002 12.550002
v -3.125000 2.500002 12.550002
v -3.125000 2.500002 12.550002
v -3.125000 2.500002 12.550002
v -3.125000 2.500002 12.550002
v -3.125000 5.000002 12.550001
v -3.125000 5.000002 12.550001
v -6.250000 0.000001 10.675001
v -6.250000 0.000001 10.675001
v -6.250000 2.500002 10.675001
v -6.250000 2.500002 10.675001
v -6.250000 2.500002 10.675001
v -6.250000 2.500002 10.675001
v -6.250000 5.000002 10.675000
v -6.250000 5.000002 10.675000
v -7.500000 0.000001 10.675001
v -7.500000 0.000001 10.675001
v -7.500000 2.500002 10.675001
v -7.500000 2.500002 10.675001
v -7.500000 2.500002 10.675001
v -7.500000 2.500002 10.675001
v -7.500000 5.000002 10.675000
v -7.500000 5.000002 10.675000
v -10.000000 0.000001 10.675001
v -10.000000 0.000001 10.675001
v -10.000000 2.500002 10.675001
v -10.000000 2.500002 10.675001
v -10.000000 2.500002 10.675001
v -10.000000 2.500002 10.675001
v -10.000000 5.000002 10.675000
v -10.000000 5.000002 10.675000
v -10.000000 0.000002 13.175002
v -10.000000 0.000002 13.175002
v -10.000000 2.500002 13.175002
v -10.000000 2.500002 13.175002
v -10.000000 2.500002 13.175002
v -10.000000 2.500002 13.175002
v -10.000000 5.000002 13.175001
v -10.000000 5.000002 13.175001
v -10.000000 0.000002 14.425002
v -10.000000 0.000002 14.425002
v -10.000000 2.500002 14.425002
v -10.000000 2.500002 14.425002
v -10.000000 2.500002 14.425002
v -10.000000 2.500002 14.425002
v -10.000000 5.000002 14.425001
v -10.000000 5.000002 14.425001
v -10.000000 0.000002 16.925001
v -10.000000 0.000002 16.925001
v -10.000000 2.500003 16.925001
v -10.000000 2.500003 16.925001
v -10.000000 2.500003 16.925001
v -10.000000 2.500003 16.925001
v -10.000000 5.000003 16.925001
v -10.000000 5.000003 16.925001
v -10.000000 0.000003 19.425001
v -10.000000 0.000003 19.425001
v -10.000000 2.500003 19.425001
v -10.000000 2.500003 19.425001
v -10.000000 2.500003 19.425001
v -10.000000 2.500003 19.425001
v -10.000000 5.000003 19.425001
v -10.000000 5.000003 19.425001
v -10.000000 0.000003 20.675001
v -10.000000 2.500003 20.675001
v -10.000000 2.500003 20.675001
v -10.000000 5.000003 20.675001
v 6.875000 3.125001 2.550000
v 5.937500 3.125001 0.987500
v 5.937500 3.125001 0.987500
v 5.937500 3.125001 0.987500
v -3.125000 0.000002 13.800002
v -3.125000 2.500002 13.800002
v -3.125000 2.500002 13.800002
v -3.125000 5.000002 13.800001
v -3.125000 1.875002 13.800002
v -3.125000 1.875002 13.800002
v -3.125000 1.875002 16.300001
v -3.125000 1.875002 16.300001
v -3.125000 1.875003 18.800001
v -3.125000 1.875003 18.800001
v -3.125000 1.875003 21.300001
v -3.125000 0.000003 21.300001
v -3.125000 1.875002 14.425002
v -3.125000 1.875002 14.425002
v -3.125000 1.875002 15.050002
v -3.125000 1.875002 15.050002
v -3.125000 1.875002 15.675002
v -3.125000 1.875002 15.675002
v -3.125000 1.875003 16.925001
v -3.125000 1.875003 16.925001
v -3.125000 1.875003 17.550001
v -3.125000 1.875003 17.550001
v -3.125000 1.875003 18.175001
v -3.125000 1.875003 18.175001
v -3.125000 1.875003 19.425001
v -3.125000 1.875003 19.425001
v -3.125000 1.875003 20.050001
v -3.125000 1.875003 20.050001
v -3.125000 0.000002 14.425002
v -3.125000 0.000002 14.425002
v -3.125000 0.000002 14.425002
v -3.125000 0.000002 15.675002
v -3.125000 0.000002 15.675002
v -3.125000 0.000002 15.675002
v -3.125000 0.000002 17.550001
v -3.125000 0.000002 17.550001
v -3.125000 0.000002 17.550001
v -3.125000 1.250003 18.800001
v -3.125000 1.250003 18.800001
v -3.125000 1.250003 18.800001
v -3.125000 1.250002 15.050002
v -3.125000 1.250002 15.050002
v -3.125000 1.250002 15.050002
v -3.125000 1.250003 19.425001
v -3.125000 1.250003 19.425001
v -3.125000 1.250003 19.425001
v -3.125000 1.250003 19.425001
v -3.125000 1.250003 19.425001
v -3.125000 1.250003 19.425001
v -2.500000 0.000002 14.425002
v -2.500000 0.000002 14.425002
v -2.500000 0.000002 14.425002
v -2.500000 0.000002 15.675002
v -2.500000 0.000002 15.675002
v -2.500000 0.000002 15.675002
v -2.500000 1.250002 15.675002
v -2.500000 1.250002 15.675002
v -2.500000 1.250002 15.675002
v -2.500000 1.250002 14.425002
v -2.500000 1.250002 14.425002
v -2.500000 1.250002 14.425002
v -3.125000 0.000002 16.300001
v -3.125000 0.000002 16.300001
v -3.125000 0.000002 16.300001
v -3.125000 1.250003 17.550001
v -3.125000 1.250003 17.550001
v -3.125000 1.250003 17.550001
v -3.125000 1.250003 17.550001
v -3.125000 1.250003 17.550001
v -3.125000 1.250003 17.550001
v -3.125000 1.250002 16.925001
v -3.125000 1.250002 16.925001
v -3.125000 1.250002 16.925001
v -2.500000 1.250002 16.300001
v -2.500000 1.250002 16.300001
v -2.500000 1.250002 16.300001
v -2.500000 0.000002 16.300001
v -2.500000 0.000002 16.300001
v -2.500000 0.000002 16.300001
v -2.500000 0.000002 17.550001
v -2.500000 0.000002 17.550001
v -2.500000 0.000002 17.550001
v -2.500000 1.250003 17.550001
v -2.500000 1.250003 17.550001
v -2.500000 1.250003 17.550001
v -2.500000 0.000002 18.175001
v -2.500000 0.000002 18.175001
v -2.500000 0.000002 18.175001
v -2.500000 0.000003 19.425001
v -2.500000 0.000003 19.425001
v -2.500000 0.000003 19.425001
v -2.500000 1.250003 18.175001
v -2.500000 1.250003 18.175001
v -2.500000 1.250003 18.175001
v -2.500000 1.250003 19.425001
v -2.500000 1.250003 19.425001
v -2.500000 1.250003 19.425001
v -3.125000 1.250002 16.300001
v -3.125000 1.250002 16.300001
v -3.125000 1.250002 16.300001
v -3.125000 1.250002 16.300001
v -3.125000 1.250002 16.300001
v -3.125000 1.250002 16.300001
v -3.125000 1.250002 13.800002
v -3.125000 1.250002 13.800002
v -3.125000 0.000002 18.175001
v -3.125000 0.000002 18.175001
v -3.125000 0.000002 18.175001
v -3.125000 0.000003 19.425001
v -3.125000 0.000003 19.425001
v -3.125000 0.000003 19.425001
v -3.125000 0.000003 20.050001
v -3.125000 0.000003 20.050001
v -3.125000 1.250002 15.675002
v -3.125000 1.250002 15.675002
v -3.125000 1.250002 15.675002
v -3.125000 1.250002 15.675002
v -3.125000 1.250002 15.675002
v -3.125000 1.250002 15.675002
v -3.125000 1.250002 14.425002
v -3.125000 1.250002 14.425002
v -3.125000 1.250002 14.425002
v -3.125000 1.250002 14.425002
v -3.125000 1.250002 14.425002
v -3.125000 1.250002 14.425002
v -3.125000 1.250003 18.175001
v -3.125000 1.250003 18.175001
v -3.125000 1.250003 18.175001
v -3.125000 1.250003 18.175001
v -3.125000 1.250003 18.175001
v -3.125000 1.250003 18.175001
v -3.125000 1.250003 20.050001
v -3.125000 1.250003 20.050001
v -3.125000 1.250003 20.050001
v -3.125000 1.250003 20.050001
v -3.281250 0.000002 15.675002
v -3.281250 0.000002 15.675002
v -3.281250 0.000002 16.300001
v -3.281250 0.000002 16.300001
v -3.281250 1.250002 16.300001
v -3.281250 1.250002 16.300001
v -3.281250 1.250002 16.300001
v -3.281250 1.250002 13.800002
v -3.281250 1.250002 13.800002
v -3.281250 0.000002 13.800002
v -3.281250 0.000002 14.425002
v -3.281250 0.000002 14.425002
v -3.281250 0.000002 17.550001
v -3.281250 0.000002 17.550001
v -3.281250 0.000002 18.175001
v -3.281250 0.000002 18.175001
v -3.281250 0.000003 19.425001
v -3.281250 0.000003 19.425001
v -3.281250 0.000003 20.050001
v -3.281250 0.000003 20.050001
v -3.281250 1.250002 15.675002
v -3.281250 1.250002 15.675002
v -3.281250 1.250002 15.675002
v -3.281250 1.250002 14.425002
v -3.281250 1.250002 14.425002
v -3.281250 1.250002 14.425002
v -3.281250 1.250003 18.175001
v -3.281250 1.250003 18.175001
v -3.281250 1.250003 18.175001
v -3.281250 1.250003 17.550001
v -3.281250 1.250003 17.550001
v -3.281250 1.250003 17.550001
v -3.281250 1.250003 20.050001
v -3.281250 1.250003 20.050001
v -3.281250 1.250003 20.050001
v -3.281250 1.250003 19.425001
v -3.281250 1.250003 19.425001
v -3.281250 1.250003 19.425001
v -6.875000 2.500003 21.925001
v -6.875000 5.000003 21.925001
v -7.500000 2.500003 21.925001
v -7.500000 2.500003 21.925001
v -7.500000 5.000003 21.925001
v -7.500000 5.000003 21.925001
v -8.125000 2.500003 21.925001
v -8.125000 2.500003 21.925001
v -10.000000 2.500003 21.925001
v -10.000000 2.500003 21.925001
v -8.125000 0.000003 21.925001
v -8.750000 2.500003 21.925001
v -8.750000 2.500003 21.925001
v -8.750000 2.500003 21.925001
v -8.750000 2.500003 21.925001
v -8.750000 5.000003 21.925001
v -8.750000 5.000003 21.925001
v -8.750000 0.000003 21.925001
v -8.750000 0.000003 21.925001
v -10.000000 5.000003 21.925001
v -10.000000 0.000003 21.925001
v 5.000000 3.125000 -0.575000
v 3.475050 -0.000000 0.770719
v 3.475050 -0.000000 0.770719
v 3.475050 -0.000000 0.770719
v 3.475051 2.500000 0.770719
v 3.475051 2.500000 0.770719
v 3.475051 2.500000 0.770719
v 3.475051 2.500000 0.770719
v 4.975051 0.000000 3.270720
v 4.975051 0.000000 3.270720
v 4.975051 0.000000 3.270720
v 4.975051 0.000000 3.270720
v 4.975051 2.500001 3.270719
v 4.975051 2.500001 3.270719
v 4.975051 2.500001 3.270719
v 4.010983 -0.000000 0.449159
v 4.010983 -0.000000 0.449159
v 4.010984 2.500000 0.449159
v 4.010984 2.500000 0.449159
v 4.010984 2.500000 0.449159
v 4.010984 2.500000 0.449159
v 4.010984 2.500000 0.449159
v 5.510984 0.000000 2.949159
v 5.510984 0.000000 2.949159
v 5.510984 0.000000 2.949159
v 5.510984 2.500001 2.949159
v 5.510984 2.500001 2.949159
v 5.510984 2.500001 2.949159
v 5.510984 2.500001 2.949159
vn -0.0000 -0.0000 1.0000
vn -0.0000 -0.0000 -1.0000
vn -0.0000 1.0000 -0.0000
vn 1.0000 -0.0000 -0.0000
vn -0.0000 -1.0000 -0.0000
vn -1.0000 -0.0000 -0.0000
vn -0.8575 -0.0000 0.5145
vn 0.8575 -0.0000 -0.5145
vn -0.5145 -0.0000 -0.8575
vn 0.5145 -0.0000 0.8575
vt 0.867851 0.574772
vt 0.804280 0.605556
vt 0.804280 0.574772
vt 0.835065 0.572770
vt 0.804280 0.509198
vt 0.835065 0.509198
vt 0.064573 0.017394
vt 0.001001 0.017394
vt 0.001001 0.024590
vt 0.982606 0.802278
vt 0.968214 0.738706
vt 0.982606 0.738706
vt 0.949819 0.033788
vt 0.919034 0.048179
vt 0.919034 0.033788
vt 0.591165 0.048179
vt 0.621950 0.017394
vt 0.621950 0.048179
vt 0.917032 0.933425
vt 0.886247 0.869853
vt 0.917032 0.869853
vt 0.919034 0.080966
vt 0.949819 0.050181
vt 0.949819 0.080966
vt 0.130147 0.017394
vt 0.099362 0.031786
vt 0.099362 0.017394
vt 0.982606 0.671130
vt 0.968214 0.640345
vt 0.982606 0.640345
vt 0.162933 0.017394
vt 0.132149 0.031786
vt 0.132149 0.017394
vt 0.949819 0.147541
vt 0.949819 0.115755
vt 0.935427 0.115755
vt 0.785884 0.064573
vt 0.722313 0.050181
vt 0.785884 0.050181
vt 0.064573 0.066575
vt 0.001001 0.080966
vt 0.001001 0.066575
vt 0.804280 0.998999
vt 0.867851 0.935427
vt 0.867851 0.998999
vt 0.835065 0.736704
vt 0.804280 0.673132
vt 0.835065 0.673132
vt 0.195720 0.132149
vt 0.132149 0.162933
vt 0.132149 0.132149
vt 0.835065 0.802278
vt 0.804280 0.738706
vt 0.835065 0.738706
vt 0.261294 0.164935
vt 0.197722 0.195720
vt 0.197722 0.164935
vt 0.785884 0.539983
vt 0.755099 0.476411
vt 0.785884 0.476411
vt 0.195720 0.164935
vt 0.132149 0.195720
vt 0.132149 0.164935
vt 0.804280 0.867851
vt 0.867851 0.804280
vt 0.867851 0.867851
vt 0.066575 0.195720
vt 0.130147 0.132149
vt 0.130147 0.195720
vt 0.804280 0.933425
vt 0.867851 0.869853
vt 0.867851 0.933425
vt 0.001001 0.195720
vt 0.064573 0.132149
vt 0.064573 0.195720
vt 0.835065 0.671130
vt 0.804280 0.607558
vt 0.835065 0.607558
vt 0.261294 0.132149
vt 0.197722 0.162933
vt 0.197722 0.132149
vt 0.787886 0.277687
vt 0.851458 0.214116
vt 0.851458 0.277687
vt 0.722313 0.212114
vt 0.785884 0.148542
vt 0.785884 0.212114
vt 0.656739 0.212114
vt 0.720311 0.148542
vt 0.720311 0.212114
vt 0.591165 0.212114
vt 0.654737 0.148542
vt 0.654737 0.212114
vt 0.867851 0.802278
vt 0.837067 0.738706
vt 0.867851 0.738706
vt 0.326868 0.115755
vt 0.263296 0.146540
vt 0.263296 0.115755
vt 0.900638 0.671130
vt 0.900638 0.607558
vt 0.877550 0.607558
vt 0.064573 0.082968
vt 0.001001 0.113753
vt 0.001001 0.082968
vt 0.982606 0.638343
vt 0.968214 0.607558
vt 0.982606 0.607558
vt 0.228507 0.017394
vt 0.197722 0.031786
vt 0.197722 0.017394
vt 0.919034 0.113753
vt 0.949819 0.082968
vt 0.949819 0.113753
vt 0.951821 0.031786
vt 0.966212 0.017394
vt 0.966212 0.031786
vt 0.896509 0.474409
vt 0.917032 0.474409
vt 0.917032 0.410837
vt 0.968214 0.048179
vt 0.982606 0.033788
vt 0.982606 0.048179
vt 0.935427 0.031786
vt 0.949819 0.017394
vt 0.949819 0.031786
vt 0.968214 0.064573
vt 0.982606 0.050181
vt 0.982606 0.064573
vt 0.968214 0.080966
vt 0.982606 0.066575
vt 0.982606 0.080966
vt 0.919034 0.031786
vt 0.933425 0.017394
vt 0.933425 0.031786
vt 0.968214 0.097360
vt 0.982606 0.082968
vt 0.982606 0.097360
vt 0.902640 0.031786
vt 0.917032 0.017394
vt 0.917032 0.031786
vt 0.886247 0.031786
vt 0.900638 0.017394
vt 0.900638 0.031786
vt 0.869853 0.031786
vt 0.884245 0.017394
vt 0.884245 0.031786
vt 0.230509 0.031786
vt 0.261294 0.024590
vt 0.230509 0.017394
vt 0.982606 0.605556
vt 0.968214 0.574772
vt 0.982606 0.574772
vt 0.919034 0.441622
vt 0.949819 0.410837
vt 0.949819 0.441622
vt 0.294081 0.017394
vt 0.263296 0.031786
vt 0.263296 0.017394
vt 0.982606 0.441622
vt 0.968214 0.410837
vt 0.982606 0.410837
vt 0.623952 0.017394
vt 0.639344 0.031786
vt 0.654737 0.017394
vt 0.982606 0.277687
vt 0.968214 0.246903
vt 0.982606 0.246903
vt 0.720311 0.017394
vt 0.689526 0.031786
vt 0.689526 0.017394
vt 0.982606 0.310474
vt 0.968214 0.279689
vt 0.982606 0.279689
vt 0.687524 0.017394
vt 0.656739 0.031786
vt 0.656739 0.017394
vt 0.982606 0.343261
vt 0.968214 0.312476
vt 0.982606 0.312476
vt 0.853460 0.031786
vt 0.867851 0.017394
vt 0.867851 0.031786
vt 0.556376 0.017394
vt 0.525591 0.031786
vt 0.525591 0.017394
vt 0.968214 0.376048
vt 0.982606 0.345263
vt 0.982606 0.376048
vt 0.523589 0.031786
vt 0.492804 0.017394
vt 0.523589 0.017394
vt 0.968214 0.408835
vt 0.982606 0.378050
vt 0.982606 0.408835
vt 0.458015 0.031786
vt 0.427231 0.017394
vt 0.458015 0.017394
vt 0.968214 0.146540
vt 0.982606 0.132149
vt 0.982606 0.146540
vt 0.982606 0.474409
vt 0.968214 0.443624
vt 0.982606 0.443624
vt 0.392442 0.017394
vt 0.361657 0.031786
vt 0.361657 0.017394
vt 0.982606 0.507196
vt 0.968214 0.476411
vt 0.982606 0.476411
vt 0.982606 0.539983
vt 0.968214 0.509198
vt 0.982606 0.509198
vt 0.326868 0.017394
vt 0.296083 0.031786
vt 0.296083 0.017394
vt 0.968214 0.179327
vt 0.982606 0.164935
vt 0.982606 0.179327
vt 0.968214 0.195720
vt 0.982606 0.181329
vt 0.982606 0.195720
vt 0.919034 0.343261
vt 0.949819 0.312476
vt 0.949819 0.343261
vt 0.968214 0.541985
vt 0.975410 0.572769
vt 0.982606 0.541985
vt 0.130147 0.050181
vt 0.066575 0.064573
vt 0.066575 0.050181
vt 0.720311 0.082968
vt 0.656739 0.113753
vt 0.656739 0.082968
vt 0.949819 0.703917
vt 0.935427 0.640345
vt 0.949819 0.640345
vt 0.654737 0.082968
vt 0.591165 0.113753
vt 0.591165 0.082968
vt 0.886247 0.214116
vt 0.901639 0.277687
vt 0.917032 0.214116
vt 0.525591 0.803279
vt 0.525591 0.867851
vt 0.551420 0.867851
vt 0.458015 0.474409
vt 0.394444 0.345263
vt 0.458015 0.345263
vt 0.460017 0.410837
vt 0.589163 0.474409
vt 0.460017 0.474409
vt 0.951821 0.933425
vt 0.966212 0.869853
vt 0.966212 0.933425
vt 0.261294 0.113753
vt 0.132149 0.099362
vt 0.261294 0.099362
vt 0.966212 0.802278
vt 0.951821 0.738706
vt 0.966212 0.738706
vt 0.867851 0.605556
vt 0.804280 0.572770
vt 0.001001 0.031786
vt 0.064573 0.031786
vt 0.968214 0.802278
vt 0.949819 0.048179
vt 0.591165 0.017394
vt 0.886247 0.933425
vt 0.919034 0.050181
vt 0.130147 0.031786
vt 0.968214 0.671130
vt 0.162933 0.031786
vt 0.935427 0.179327
vt 0.949819 0.179327
vt 0.722313 0.064573
vt 0.064573 0.080966
vt 0.804280 0.935427
vt 0.804280 0.736704
vt 0.195720 0.162933
vt 0.804280 0.802278
vt 0.261294 0.195720
vt 0.755099 0.539983
vt 0.195720 0.195720
vt 0.804280 0.804280
vt 0.066575 0.132149
vt 0.804280 0.869853
vt 0.001001 0.132149
vt 0.804280 0.671130
vt 0.261294 0.162933
vt 0.787886 0.214116
vt 0.722313 0.148542
vt 0.656739 0.148542
vt 0.591165 0.148542
vt 0.837067 0.802278
vt 0.326868 0.146540
vt 0.869853 0.607558
vt 0.869853 0.671130
vt 0.064573 0.113753
vt 0.968214 0.638343
vt 0.228507 0.031786
vt 0.919034 0.082968
vt 0.951821 0.017394
vt 0.886247 0.410837
vt 0.886247 0.474409
vt 0.968214 0.033788
vt 0.935427 0.017394
vt 0.968214 0.050181
vt 0.968214 0.066575
vt 0.919034 0.017394
vt 0.968214 0.082968
vt 0.902640 0.017394
vt 0.886247 0.017394
vt 0.869853 0.017394
vt 0.261294 0.031786
vt 0.261294 0.017394
vt 0.968214 0.605556
vt 0.919034 0.410837
vt 0.294081 0.031786
vt 0.968214 0.441622
vt 0.623952 0.031786
vt 0.654737 0.031786
vt 0.968214 0.277687
vt 0.720311 0.031786
vt 0.968214 0.310474
vt 0.687524 0.031786
vt 0.968214 0.343261
vt 0.853460 0.017394
vt 0.556376 0.031786
vt 0.968214 0.345263
vt 0.492804 0.031786
vt 0.968214 0.378050
vt 0.427231 0.031786
vt 0.968214 0.132149
vt 0.968214 0.474409
vt 0.392442 0.031786
vt 0.968214 0.507196
vt 0.968214 0.539983
vt 0.326868 0.031786
vt 0.968214 0.164935
vt 0.968214 0.181329
vt 0.919034 0.312476
vt 0.968214 0.572770
vt 0.982606 0.572770
vt 0.130147 0.064573
vt 0.720311 0.113753
vt 0.935427 0.703917
vt 0.654737 0.113753
vt 0.886247 0.277687
vt 0.917032 0.277687
vt 0.654737 0.867851
vt 0.654737 0.738706
vt 0.551420 0.738706
vt 0.525591 0.738706
vt 0.394444 0.474409
vt 0.589163 0.410837
vt 0.951821 0.869853
vt 0.132149 0.113753
vt 0.951821 0.802278
s 0
usemtl Dark
f 346/83/7 351/84/7 347/85/7
f 348/86/7 353/87/7 349/88/7
f 363/89/8 369/90/8 377/91/8
f 365/92/8 370/93/8 364/94/8
f 367/95/9 399/96/9 380/97/9
f 371/98/8 390/99/8 378/100/8
f 373/101/8 382/102/8 372/103/8
f 397/104/8 400/105/8 394/106/8
f 375/107/10 392/108/10 366/109/10
f 389/110/11 396/111/11 376/112/11
f 379/113/12 401/114/12 388/115/12
f 391/116/8 383/117/8 405/118/8
f 384/119/8 407/120/8 406/121/8
f 412/122/10 413/123/10 411/124/10
f 415/125/10 417/126/10 414/127/10
f 358/128/8 427/129/8 359/130/8
f 360/131/8 430/132/8 361/133/8
f 422/134/10 435/135/10 419/136/10
f 420/137/10 432/138/10 418/139/10
f 437/140/7 441/141/7 433/142/7
f 434/143/7 439/144/7 431/145/7
f 445/146/7 449/147/7 442/148/7
f 443/149/7 447/150/7 440/151/7
f 454/152/10 457/153/10 451/154/10
f 452/155/10 455/156/10 448/157/10
f 461/158/10 465/159/10 458/160/10
f 459/161/10 463/162/10 456/163/10
f 469/164/10 473/165/10 466/166/10
f 467/167/10 471/168/10 464/169/10
f 477/170/10 481/171/10 474/172/10
f 475/173/10 479/174/10 472/175/10
f 485/176/10 488/177/10 482/178/10
f 483/179/10 487/180/10 480/181/10
f 423/182/12 495/183/12 499/184/12
f 425/185/12 498/186/12 429/187/12
f 612/188/8 549/189/8 527/190/8
f 523/191/7 553/192/7 614/193/7
f 581/194/12 589/195/12 587/196/12
f 519/197/12 627/198/12 521/199/12
f 628/200/12 607/201/12 506/202/12
f 513/203/12 559/204/12 515/205/12
f 516/206/12 622/207/12 517/208/12
f 518/209/12 532/210/12 503/211/12
f 507/212/12 535/213/12 509/214/12
f 510/215/12 608/216/12 511/217/12
f 512/218/12 594/219/12 501/220/12
f 500/221/12 616/222/12 508/223/12
f 502/224/12 565/225/12 514/226/12
f 504/227/12 538/228/12 520/229/12
f 551/230/11 537/231/11 555/232/11
f 526/233/9 546/234/9 525/235/9
f 569/236/12 574/237/12 577/238/12
f 529/239/9 573/240/9 558/241/9
f 556/242/7 568/243/7 592/244/7
f 578/245/11 567/246/11 570/247/11
f 563/248/8 576/249/8 530/250/8
f 603/251/9 582/252/9 602/253/9
f 600/254/7 586/255/7 620/256/7
f 542/257/8 585/258/8 604/259/8
f 615/260/7 640/261/7 524/262/7
f 611/263/9 636/264/9 597/265/9
f 528/266/8 652/267/8 613/268/8
f 637/269/12 641/270/12 654/271/12
f 650/272/12 633/273/12 635/274/12
f 659/275/12 645/276/12 657/277/12
f 665/278/12 649/279/12 663/280/12
f 599/281/9 655/282/9 619/283/9
f 621/284/7 644/285/7 601/286/7
f 593/287/7 632/288/7 557/289/7
f 531/290/8 661/291/8 564/292/8
f 626/293/7 648/294/7 606/295/7
f 605/296/8 667/297/8 543/298/8
f 541/299/9 664/300/9 629/301/9
f 562/302/9 658/303/9 625/304/9
f 545/305/12 550/306/12 554/307/12
f 590/308/11 534/309/11 588/310/11
f 668/311/8 672/312/8 669/313/8
f 685/314/8 676/315/8 679/316/8
f 678/317/8 680/318/8 674/319/8
f 681/320/8 687/321/8 683/322/8
f 673/323/8 675/324/8 684/325/8
f 492/326/13 689/327/13 356/328/13
f 694/329/13 697/330/13 702/331/13
f 706/332/14 711/333/14 704/334/14
f 707/335/15 690/336/15 695/337/15
f 714/338/9 693/339/9 701/340/9
f 698/341/16 715/342/16 703/343/16
f 346/83/7 350/344/7 351/84/7
f 348/86/7 352/345/7 353/87/7
f 368/346/8 362/347/8 377/91/8
f 362/347/8 363/89/8 377/91/8
f 365/92/8 374/348/8 370/93/8
f 367/95/9 393/349/9 399/96/9
f 371/98/8 385/350/8 390/99/8
f 373/101/8 386/351/8 382/102/8
f 397/104/8 403/352/8 400/105/8
f 375/107/10 395/353/10 392/108/10
f 389/110/11 402/354/11 396/111/11
f 379/113/12 398/355/12 401/114/12
f 405/118/8 404/356/8 391/116/8
f 404/356/8 381/357/8 391/116/8
f 384/119/8 387/358/8 407/120/8
f 412/122/10 416/359/10 413/123/10
f 415/125/10 421/360/10 417/126/10
f 358/128/8 424/361/8 427/129/8
f 360/131/8 428/362/8 430/132/8
f 422/134/10 438/363/10 435/135/10
f 420/137/10 436/364/10 432/138/10
f 437/140/7 446/365/7 441/141/7
f 434/143/7 444/366/7 439/144/7
f 445/146/7 453/367/7 449/147/7
f 443/149/7 450/368/7 447/150/7
f 454/152/10 462/369/10 457/153/10
f 452/155/10 460/370/10 455/156/10
f 461/158/10 470/371/10 465/159/10
f 459/161/10 468/372/10 463/162/10
f 469/164/10 478/373/10 473/165/10
f 467/167/10 476/374/10 471/168/10
f 477/170/10 486/375/10 481/171/10
f 475/173/10 484/376/10 479/174/10
f 485/176/10 490/377/10 488/177/10
f 483/179/10 489/378/10 487/180/10
f 496/379/12 426/380/12 499/184/12
f 426/380/12 423/182/12 499/184/12
f 425/185/12 497/381/12 498/186/12
f 612/188/8 552/382/8 549/189/8
f 523/191/7 544/383/7 553/192/7
f 581/194/12 583/384/12 589/195/12
f 519/197/12 539/385/12 627/198/12
f 506/202/12 505/386/12 628/200/12
f 505/386/12 522/387/12 628/200/12
f 513/203/12 566/388/12 559/204/12
f 516/206/12 560/389/12 622/207/12
f 518/209/12 623/390/12 532/210/12
f 507/212/12 617/391/12 535/213/12
f 510/215/12 536/392/12 608/216/12
f 512/218/12 609/393/12 594/219/12
f 500/221/12 598/394/12 616/222/12
f 502/224/12 595/395/12 565/225/12
f 504/227/12 533/396/12 538/228/12
f 610/397/11 537/231/11 551/230/11
f 537/231/11 618/398/11 555/232/11
f 526/233/9 548/399/9 546/234/9
f 569/236/12 572/400/12 574/237/12
f 529/239/9 575/401/9 573/240/9
f 556/242/7 571/402/7 568/243/7
f 561/403/11 567/246/11 578/245/11
f 567/246/11 596/404/11 570/247/11
f 563/248/8 579/405/8 576/249/8
f 603/251/9 584/406/9 582/252/9
f 600/254/7 580/407/7 586/255/7
f 542/257/8 591/408/8 585/258/8
f 615/260/7 653/409/7 640/261/7
f 611/263/9 651/410/9 636/264/9
f 528/266/8 631/411/8 652/267/8
f 637/269/12 639/412/12 641/270/12
f 650/272/12 630/413/12 633/273/12
f 659/275/12 642/414/12 645/276/12
f 665/278/12 646/415/12 649/279/12
f 599/281/9 638/416/9 655/282/9
f 621/284/7 656/417/7 644/285/7
f 593/287/7 634/418/7 632/288/7
f 531/290/8 643/419/8 661/291/8
f 626/293/7 662/420/7 648/294/7
f 605/296/8 647/421/8 667/297/8
f 541/299/9 666/422/9 664/300/9
f 562/302/9 660/423/9 658/303/9
f 545/305/12 547/424/12 550/306/12
f 540/425/11 534/309/11 590/308/11
f 534/309/11 624/426/11 588/310/11
f 668/311/8 670/427/8 672/312/8
f 685/314/8 688/428/8 676/315/8
f 678/317/8 686/429/8 680/318/8
f 681/320/8 677/430/8 687/321/8
f 671/431/8 675/324/8 673/323/8
f 675/324/8 682/432/8 684/325/8
f 357/328/13 354/433/13 493/326/13
f 355/433/13 409/434/13 494/326/13
f 410/435/13 491/436/13 492/326/13
f 408/434/13 410/435/13 492/326/13
f 696/329/13 691/437/13 699/330/13
f 708/332/14 716/438/14 712/333/14
f 709/335/15 705/439/15 692/336/15
f 714/338/9 710/440/9 693/339/9
s 1
f 700/341/16 713/441/16 717/342/16
o Light-material
v -5.000000 2.500001 6.300001
v -5.000000 2.500001 6.300001
v -5.000000 2.500001 6.300001
v -5.000000 2.500001 6.300001
v -5.000000 5.000001 6.300001
v -5.000000 5.000001 6.300001
v -6.250000 0.000001 6.300001
v -6.250000 0.000001 6.300001
v -6.250000 0.000001 6.300001
v -6.250000 2.500001 6.300001
v -6.250000 2.500001 6.300001
v -6.250000 2.500001 6.300001
v -6.250000 2.500001 6.300001
v -6.250000 2.500001 6.300001
v -6.250000 2.500001 6.300001
v -6.250000 5.000001 6.300001
v -6.250000 5.000001 6.300001
v -6.250000 5.000001 6.300001
v -5.625000 0.000001 6.300001
v -5.625000 0.000001 6.300001
v -5.625000 0.000001 6.300001
v -5.625000 2.500001 6.300001
v -5.625000 2.500001 6.300001
v -5.625000 2.500001 6.300001
v -5.625000 2.500001 6.300001
v -5.625000 2.500001 6.300001
v -5.625000 2.500001 6.300001
v -5.625000 2.500001 6.300001
v -5.625000 2.500001 6.300001
v -5.625000 2.500001 6.300001
v -5.625000 2.500001 6.300001
v -5.625000 5.000001 6.300001
v -5.625000 5.000001 6.300001
v -5.625000 5.000001 6.300001
v -5.625000 5.000001 6.300001
v -5.625000 5.000001 6.300001
v -5.675000 0.050001 6.200001
v -5.675000 0.050001 6.200001
v -5.675000 0.050001 6.200001
v -5.675000 0.050001 6.200001
v -5.675000 2.450001 6.200000
v -5.675000 2.450001 6.200000
v -5.675000 2.450001 6.200000
v -5.675000 2.450001 6.200000
v -6.200000 2.450001 6.200000
v -6.200000 2.450001 6.200000
v -6.200000 2.450001 6.200000
v -6.200000 2.450001 6.200000
v -6.200000 0.050001 6.200001
v -6.200000 0.050001 6.200001
v -6.200000 0.050001 6.200001
v -6.200000 0.050001 6.200001
v -5.675000 2.550001 6.200000
v -5.675000 2.550001 6.200000
v -5.675000 2.550001 6.200000
v -5.675000 4.950001 6.200000
v -5.675000 4.950001 6.200000
v -5.675000 4.950001 6.200000
v -5.675000 4.950001 6.200000
v -5.675000 4.950001 6.200000
v -6.200000 4.950001 6.200000
v -6.200000 4.950001 6.200000
v -6.200000 4.950001 6.200000
v -6.200000 4.950001 6.200000
v -6.200000 2.550001 6.200000
v -6.200000 2.550001 6.200000
v -6.200000 2.550001 6.200000
v -6.200000 2.550001 6.200000
v -5.050000 2.550001 6.200000
v -5.050000 2.550001 6.200000
v -5.050000 2.550001 6.200000
v -5.050000 4.950001 6.200000
v -5.050000 4.950001 6.200000
v -5.050000 4.950001 6.200000
v -5.050000 4.950001 6.200000
v -5.050000 4.950001 6.200000
v -5.575000 4.950001 6.200000
v -5.575000 4.950001 6.200000
v -5.575000 4.950001 6.200000
v -5.575000 4.950001 6.200000
v -5.575000 2.550001 6.200000
v -5.575000 2.550001 6.200000
v -5.575000 2.550001 6.200000
v -5.575000 2.550001 6.200000
v -10.000000 0.000003 20.675001
v -10.000000 0.000003 20.675001
v -10.000000 0.000003 20.675001
v -10.000000 2.500003 20.675001
v -10.000000 2.500003 20.675001
v -10.000000 2.500003 20.675001
v -10.000000 2.500003 20.675001
v -10.000000 2.500003 20.675001
v -10.000000 2.500003 20.675001
v -10.000000 2.500003 20.675001
v -10.000000 5.000003 20.675001
v -10.000000 5.000003 20.675001
v -10.000000 0.000003 21.300001
v -10.000000 0.000003 21.300001
v -10.000000 0.000003 21.300001
v -10.000000 0.000003 21.300001
v -10.000000 0.000003 21.300001
v -10.000000 0.000003 21.300001
v -10.000000 2.500003 21.300001
v -10.000000 2.500003 21.300001
v -10.000000 2.500003 21.300001
v -10.000000 2.500003 21.300001
v -10.000000 2.500003 21.300001
v -10.000000 2.500003 21.300001
v -10.000000 2.500003 21.300001
v -10.000000 2.500003 21.300001
v -10.000000 2.500003 21.300001
v -10.000000 2.500003 21.300001
v -10.000000 2.500003 21.300001
v -10.000000 2.500003 21.300001
v -10.000000 2.500003 21.300001
v -10.000000 5.000003 21.300001
v -10.000000 5.000003 21.300001
v -10.000000 5.000003 21.300001
v -10.000000 5.000003 21.300001
v -10.000000 5.000003 21.300001
v -10.100000 2.550003 20.725002
v -10.100000 2.550003 20.725002
v -10.100000 2.550003 20.725002
v -10.100000 4.950003 20.725002
v -10.100000 4.950003 20.725002
v -10.100000 4.950003 20.725002
v -10.100000 4.950003 20.725002
v -10.100000 4.950003 20.725002
v -10.100000 4.950003 21.250002
v -10.100000 4.950003 21.250002
v -10.100000 4.950003 21.250002
v -10.100000 4.950003 21.250002
v -10.100000 2.550003 21.250002
v -10.100000 2.550003 21.250002
v -10.100000 2.550003 21.250002
v -10.100000 2.550003 21.250002
v -10.100000 0.050003 20.725002
v -10.100000 0.050003 20.725002
v -10.100000 0.050003 20.725002
v -10.100000 0.050003 20.725002
v -10.100000 2.450003 20.725002
v -10.100000 2.450003 20.725002
v -10.100000 2.450003 20.725002
v -10.100000 2.450003 20.725002
v -10.100000 2.450003 21.250002
v -10.100000 2.450003 21.250002
v -10.100000 2.450003 21.250002
v -10.100000 2.450003 21.250002
v -10.100000 0.050003 21.250002
v -10.100000 0.050003 21.250002
v -10.100000 0.050003 21.250002
v -10.100000 0.050003 21.250002
v -10.100000 2.550003 21.350002
v -10.100000 2.550003 21.350002
v -10.100000 2.550003 21.350002
v -10.100000 4.950003 21.350002
v -10.100000 4.950003 21.350002
v -10.100000 4.950003 21.350002
v -10.100000 4.950003 21.350002
v -10.100000 4.950003 21.350002
v -10.100000 4.950003 21.875002
v -10.100000 4.950003 21.875002
v -10.100000 4.950003 21.875002
v -10.100000 4.950003 21.875002
v -10.100000 2.550003 21.875002
v -10.100000 2.550003 21.875002
v -10.100000 2.550003 21.875002
v -10.100000 2.550003 21.875002
v -10.100000 0.050003 21.350002
v -10.100000 0.050003 21.350002
v -10.100000 0.050003 21.350002
v -10.100000 0.050003 21.350002
v -10.100000 2.450003 21.350002
v -10.100000 2.450003 21.350002
v -10.100000 2.450003 21.350002
v -10.100000 2.450003 21.350002
v -10.100000 2.450003 21.875002
v -10.100000 2.450003 21.875002
v -10.100000 2.450003 21.875002
v -10.100000 2.450003 21.875002
v -10.100000 0.050003 21.875002
v -10.100000 0.050003 21.875002
v -10.100000 0.050003 21.875002
v -10.100000 0.050003 21.875002
v -10.000000 2.500003 21.925001
v -10.000000 2.500003 21.925001
v -10.000000 2.500003 21.925001
v -10.000000 2.500003 21.925001
v -10.000000 2.500003 21.925001
v -10.000000 2.500003 21.925001
v -10.000000 5.000003 21.925001
v -10.000000 5.000003 21.925001
v -10.000000 5.000003 21.925001
v -10.000000 0.000003 21.925001
v -10.000000 0.000003 21.925001
v -10.000000 0.000003 21.925001
vn -0.0000 -0.0000 1.0000
vn -0.8944 -0.0000 0.4472
vn -0.0000 -0.8944 0.4472
vn 0.8944 -0.0000 0.4472
vn -0.0000 0.8944 0.4472
vn 1.0000 -0.0000 -0.0000
vn 0.4472 -0.0000 0.8944
vn 0.4472 -0.8944 -0.0000
vn 0.4472 -0.0000 -0.8944
vn 0.4472 0.8944 -0.0000
vt 0.982606 0.998999
vt 0.968214 0.935427
vt 0.982606 0.935427
vt 0.753097 0.033788
vt 0.689526 0.048179
vt 0.689526 0.033788
vt 0.982606 0.736704
vt 0.968214 0.673132
vt 0.982606 0.673132
vt 0.966212 0.343261
vt 0.951821 0.279689
vt 0.966212 0.279689
vt 0.984608 0.884245
vt 0.998999 0.869853
vt 0.998999 0.884245
vt 0.523589 0.050181
vt 0.460017 0.064573
vt 0.460017 0.050181
vt 0.984608 0.900638
vt 0.998999 0.886247
vt 0.998999 0.900638
vt 0.933425 0.115755
vt 0.919034 0.179327
vt 0.919034 0.115755
vt 0.099362 0.015392
vt 0.113753 0.001001
vt 0.113753 0.015392
vt 0.720311 0.066575
vt 0.656739 0.080966
vt 0.656739 0.066575
vt 0.082968 0.015392
vt 0.097360 0.001001
vt 0.097360 0.015392
vt 0.917032 0.476411
vt 0.902640 0.539983
vt 0.902640 0.476411
vt 0.984608 0.917032
vt 0.998999 0.902640
vt 0.998999 0.917032
vt 0.130147 0.066575
vt 0.066575 0.080966
vt 0.066575 0.066575
vt 0.066575 0.015392
vt 0.080966 0.001001
vt 0.080966 0.015392
vt 0.933425 0.900638
vt 0.919034 0.837067
vt 0.933425 0.837067
vt 0.458015 0.066575
vt 0.394444 0.080966
vt 0.394444 0.066575
vt 0.933425 0.769491
vt 0.919034 0.705919
vt 0.933425 0.705919
vt 0.589163 0.066575
vt 0.525591 0.080966
vt 0.525591 0.066575
vt 0.933425 0.574772
vt 0.919034 0.638343
vt 0.919034 0.574772
vt 0.984608 0.933425
vt 0.998999 0.919034
vt 0.998999 0.933425
vt 0.785884 0.066575
vt 0.722313 0.080966
vt 0.722313 0.066575
vt 0.984608 0.949819
vt 0.998999 0.935427
vt 0.998999 0.949819
vt 0.949819 0.998999
vt 0.935427 0.935427
vt 0.949819 0.935427
vt 0.050181 0.015392
vt 0.064573 0.001001
vt 0.064573 0.015392
vt 0.654737 0.050181
vt 0.591165 0.064573
vt 0.591165 0.050181
vt 0.984608 0.966212
vt 0.998999 0.951821
vt 0.998999 0.966212
vt 0.966212 0.148542
vt 0.951821 0.212114
vt 0.951821 0.148542
vt 0.033788 0.015392
vt 0.048179 0.001001
vt 0.048179 0.015392
vt 0.917032 0.033788
vt 0.853460 0.048179
vt 0.853460 0.033788
vt 0.017394 0.015392
vt 0.031786 0.001001
vt 0.031786 0.015392
vt 0.982606 0.933425
vt 0.968214 0.869853
vt 0.982606 0.869853
vt 0.984608 0.982606
vt 0.998999 0.968214
vt 0.998999 0.982606
vt 0.687524 0.033788
vt 0.623952 0.048179
vt 0.623952 0.033788
vt 0.984608 0.998999
vt 0.998999 0.984608
vt 0.998999 0.998999
vt 0.968214 0.998999
vt 0.753097 0.048179
vt 0.968214 0.736704
vt 0.951821 0.343261
vt 0.984608 0.869853
vt 0.523589 0.064573
vt 0.984608 0.886247
vt 0.933425 0.179327
vt 0.099362 0.001001
vt 0.720311 0.080966
vt 0.082968 0.001001
vt 0.917032 0.539983
vt 0.984608 0.902640
vt 0.130147 0.080966
vt 0.066575 0.001001
vt 0.919034 0.900638
vt 0.458015 0.080966
vt 0.919034 0.769491
vt 0.589163 0.080966
vt 0.933425 0.638343
vt 0.984608 0.919034
vt 0.785884 0.080966
vt 0.984608 0.935427
vt 0.935427 0.998999
vt 0.050181 0.001001
vt 0.654737 0.064573
vt 0.984608 0.951821
vt 0.966212 0.212114
vt 0.033788 0.001001
vt 0.917032 0.048179
vt 0.017394 0.001001
vt 0.968214 0.933425
vt 0.984608 0.968214
vt 0.687524 0.048179
vt 0.984608 0.984608
s 0
usemtl Light
f 758/442/17 766/443/17 754/444/17
f 773/445/17 782/446/17 770/447/17
f 789/448/17 798/449/17 786/450/17
f 739/451/18 755/452/18 736/453/18
f 727/454/19 759/455/19 740/456/19
f 724/457/20 763/458/20 728/459/20
f 737/460/21 767/461/21 725/462/21
f 743/463/18 774/464/18 771/465/18
f 733/466/19 775/467/19 749/468/19
f 730/469/20 779/470/20 734/471/20
f 741/472/21 783/473/21 729/474/21
f 720/475/18 792/476/18 787/477/18
f 750/478/19 791/479/19 723/480/19
f 744/481/20 795/482/20 751/483/20
f 719/484/21 799/485/21 742/486/21
f 841/487/22 850/488/22 838/489/22
f 858/490/22 866/491/22 854/492/22
f 873/493/22 882/494/22 870/495/22
f 890/496/22 898/497/22 886/498/22
f 805/499/23 842/500/23 839/501/23
f 833/502/24 843/503/24 812/504/24
f 821/505/25 847/506/25 835/507/25
f 806/508/26 851/509/26 822/510/26
f 807/511/23 855/512/23 802/513/23
f 824/514/24 859/515/24 808/516/24
f 815/517/25 863/518/25 826/519/25
f 803/520/26 867/521/26 816/522/26
f 820/523/23 874/524/23 871/525/23
f 908/526/24 875/527/24 834/528/24
s 1
f 902/529/25 879/530/25 909/531/25
s 0
f 827/532/26 883/533/26 905/534/26
f 823/535/23 887/536/23 814/537/23
f 903/538/24 891/539/24 825/540/24
f 911/541/25 895/542/25 904/543/25
f 817/544/26 899/545/26 912/546/26
f 758/442/17 762/547/17 766/443/17
f 773/445/17 778/548/17 782/446/17
f 789/448/17 794/549/17 798/449/17
f 745/451/18 760/550/18 756/452/18
f 731/454/19 764/551/19 761/455/19
f 726/457/20 768/552/20 765/458/20
f 738/460/21 757/553/21 769/461/21
f 747/463/18 752/554/18 776/464/18
f 735/466/19 781/555/19 777/467/19
f 732/469/20 784/556/20 780/470/20
f 746/472/21 772/557/21 785/473/21
f 718/475/18 722/558/18 790/476/18
f 753/478/19 796/559/19 793/479/19
f 748/481/20 801/560/20 797/482/20
f 721/484/21 788/561/21 800/485/21
f 841/487/22 846/562/22 850/488/22
f 858/490/22 862/563/22 866/491/22
f 873/493/22 878/564/22 882/494/22
f 890/496/22 894/565/22 898/497/22
f 809/499/23 813/566/23 844/500/23
f 837/502/24 848/567/24 845/503/24
f 829/505/25 852/568/25 849/506/25
f 810/508/26 840/569/26 853/509/26
f 811/511/23 860/570/23 856/512/23
f 832/514/24 864/571/24 861/515/24
f 818/517/25 868/572/25 865/518/25
f 804/520/26 857/573/26 869/521/26
s 1
f 828/523/23 836/574/23 876/524/23
s 0
f 910/526/24 881/575/24 877/527/24
f 906/529/25 884/576/25 880/530/25
f 830/532/26 872/577/26 885/533/26
f 831/535/23 892/578/23 888/536/23
f 907/538/24 897/579/24 893/539/24
f 913/541/25 900/580/25 896/542/25
f 819/544/26 889/581/26 901/545/26
o Room-material
v 1.250000 2.500000 -0.575000
v 1.250000 2.500000 -0.575000
v 1.250000 5.000000 -0.575000
v 1.250000 5.000000 -0.575000
v 2.500000 2.500000 -0.575000
v 3.750000 2.500000 -0.575000
v 3.750000 2.500000 -0.575000
v 3.750000 5.000000 -0.575000
v 3.750000 5.000000 -0.575000
v 1.250000 2.500000 -3.075001
v 1.250000 2.500000 -3.075001
v 1.250000 2.500000 -3.075001
v 1.250000 5.000000 -3.075001
v 1.250000 5.000000 -3.075001
v 1.250000 5.000000 -3.075001
v 3.750000 2.500000 -3.075001
v 3.750000 2.500000 -3.075001
v 3.750000 2.500000 -3.075001
v 3.750000 5.000000 -3.075001
v 3.750000 5.000000 -3.075001
v 3.750000 5.000000 -3.075001
vn 1.0000 -0.0000 -0.0000
vn -1.0000 -0.0000 -0.0000
vn -0.0000 -0.0000 1.0000
vn -0.0000 -1.0000 -0.0000
vn -0.0000 1.0000 -0.0000
vt 0.000000 1.000000
vt 0.500000 0.500000
vt 0.000000 0.500000
vt 0.500000 1.000000
vt 1.000000 0.500000
vt 0.500000 0.000000
vt 0.750000 0.500000
vt 1.000000 0.000000
s 0
usemtl Room
f 914/582/27 927/583/27 916/584/27
f 921/583/28 930/582/28 919/585/28
f 929/585/29 926/584/29 923/582/29
f 934/586/30 917/587/30 928/583/30
f 918/588/31 931/589/31 925/587/31
f 914/582/27 924/585/27 927/583/27
f 921/583/28 933/584/28 930/582/28
f 929/585/29 932/583/29 926/584/29
f 934/586/30 922/589/30 917/587/30
f 925/587/31 915/583/31 918/588/31
f 918/588/31 920/586/31 931/589/31
o Display-material
v -5.000000 2.500003 21.925001
v -6.875000 2.500003 21.925001
v -7.500000 2.500003 21.925001
v -4.375000 2.500003 21.925001
v -5.000000 4.375003 21.925001
v -4.375000 4.375003 21.925001
v -6.875000 1.250003 21.925001
v -7.500000 1.250003 21.925001
vn -0.0000 -0.0000 -1.0000
vt 0.000000 1.000000
vt 0.500000 -0.500000
vt 0.000000 -0.500000
vt 0.500000 1.000000
vt 1.000000 0.000000
vt 0.500000 0.000000
vt 1.000000 1.000000
s 0
usemtl Display
f 938/590/32 939/591/32 940/592/32
f 941/593/32 937/594/32 936/595/32
f 938/590/32 935/593/32 939/591/32
f 941/593/32 942/596/32 937/594/32
o Glass-material
v 1.250000 2.500000 -0.575000
v 1.250000 5.000000 -0.575000
v 3.750000 2.500000 -0.575000
v 3.750000 5.000000 -0.575000
v -10.000000 2.500003 21.925001
v -10.000000 5.000003 21.925001
v -10.000000 5.000003 21.925001
v -10.000000 2.500003 20.675001
v -10.000000 5.000003 20.675001
v -10.000000 5.000003 20.675001
v -10.000000 5.000003 21.300001
v -10.000000 5.000003 21.300001
v -10.000000 2.500003 21.300001
v -10.000000 0.000003 21.925001
v -10.000000 0.000003 20.675001
v -10.000000 0.000003 21.300001
v -7.500000 5.000003 21.925001
v -7.500000 5.000003 20.675001
v -7.500000 5.000003 21.300001
v -5.000000 5.000003 21.925001
v -5.000000 5.000003 21.300001
v -6.250001 2.500001 6.299998
v -6.250001 2.500001 6.299998
v -6.250001 5.000001 6.299998
v -6.250001 5.000001 6.299998
v -5.000001 2.500001 6.299998
v -5.000001 5.000001 6.299998
v -5.625001 5.000001 6.299998
v -5.625001 5.000001 6.299998
v -5.625001 5.000001 6.299998
v -5.625001 2.500001 6.299998
v -5.625001 2.500001 6.299998
v -5.625001 2.500001 6.299998
v -6.250001 0.000001 6.299999
v -5.625001 0.000001 6.299999
v -6.250001 5.000001 8.799999
v -5.625001 5.000001 8.799999
vn -0.0000 -0.0000 1.0000
vn 1.0000 -0.0000 -0.0000
vn -0.0000 -1.0000 -0.0000
vt 1.250000 1.250000
vt -0.250000 -0.250000
vt -0.250000 1.250000
vt 0.875000 0.500000
vt 0.500000 -1.000000
vt 0.500000 0.500000
vt 0.125000 -1.000000
vt 0.125000 0.500000
vt 0.875000 2.000000
vt 0.500000 2.000000
vt 0.500000 -1.000000
vt 0.875000 0.500000
vt 0.875000 -1.000000
vt 0.125000 -0.999999
vt 0.500000 0.500000
vt 0.312519 1.249925
vt -0.062444 -0.249925
vt -0.062444 1.249925
vt 0.312519 1.249925
vt 0.312500 -0.250000
vt 0.687500 1.250000
vt 0.687500 -0.250000
vt 0.312500 1.250000
vt 1.250000 -0.250000
vt 0.125000 2.000000
vt 0.125000 0.500000
vt 0.500000 2.000000
vt 0.312519 -0.249925
vt 0.312519 -0.249925
s 0
usemtl Glass
f 945/597/33 944/598/33 943/599/33
f 950/600/34 953/601/34 955/602/34
f 955/602/34 948/603/34 947/604/34
f 955/602/34 957/605/34 950/600/34
f 947/604/34 958/606/34 955/602/34
f 954/607/35 959/608/35 949/609/35
f 952/610/35 961/611/35 954/607/35
f 961/611/35 962/605/35 959/608/35
f 968/612/33 970/613/33 973/614/33
f 974/615/33 966/613/33 964/614/33
f 965/616/33 977/617/33 975/618/33
f 972/617/35 978/616/35 967/619/35
f 945/597/33 946/620/33 944/598/33
f 950/600/34 951/609/34 953/601/34
f 955/602/34 953/601/34 948/603/34
f 955/602/34 958/606/34 957/605/34
f 947/604/34 956/621/34 958/606/34
f 954/607/35 961/611/35 959/608/35
f 952/610/35 960/622/35 961/611/35
f 961/611/35 963/623/35 962/605/35
f 968/612/33 969/624/33 970/613/33
f 974/615/33 971/625/33 966/613/33
f 965/616/33 976/619/33 977/617/33
f 972/617/35 979/618/35 978/616/35
o White-material.001
v -10.000000 5.000003 19.425001
v -7.500000 5.000003 19.425001
v -7.500000 5.000003 19.425001
v -6.250000 5.000003 19.425001
v -10.000000 5.000003 18.175001
v -7.500000 5.000003 18.175001
v -7.500000 5.000003 18.175001
v -6.250000 5.000003 18.175001
v -6.250000 5.000002 15.675001
v -8.750000 5.000002 15.675001
v -6.250000 5.000002 10.675000
v -8.750000 5.000002 10.675000
v -6.250000 5.000002 13.175001
v -6.250000 5.000002 13.175001
v -8.750000 5.000002 13.175001
v -8.750000 5.000002 13.175001
v -1.875000 5.000001 6.300000
v -1.875000 5.000000 1.299998
v -1.875000 5.000000 1.299998
v -1.875000 5.000001 3.799999
v -1.875000 5.000001 3.799999
v -1.875000 5.000000 0.049999
v 0.625000 5.000001 6.300000
v 0.625000 5.000001 6.300000
v 0.625000 5.000001 6.300000
v 0.625000 5.000000 1.299998
v 0.625000 5.000000 1.299998
v 0.625000 5.000000 1.299998
v 0.625000 5.000000 1.299998
v 0.625000 5.000001 3.799999
v 0.625000 5.000001 3.799999
v 0.625000 5.000001 3.799999
v 0.625000 5.000001 3.799999
v 0.625000 5.000000 0.049999
v 0.625000 5.000000 0.049999
v 3.125000 5.000001 6.300000
v 3.125000 5.000001 6.300000
v 3.125000 5.000001 6.300000
v 3.125000 5.000000 1.299998
v 3.125000 5.000000 1.299998
v 3.125000 5.000000 1.299998
v 3.125000 5.000000 1.299998
v 3.125000 5.000001 3.799999
v 3.125000 5.000001 3.799999
v 3.125000 5.000001 3.799999
v 3.125000 5.000001 3.799999
v 3.125000 5.000000 0.049999
v 3.125000 5.000000 0.049999
v 4.375000 5.000001 6.300000
v 4.375000 5.000001 6.300000
v 4.375000 5.000001 6.300000
v 4.375000 5.000001 6.300000
v 4.375000 5.000000 1.299998
v 4.375000 5.000000 1.299998
v 4.375000 5.000001 3.799999
v 4.375000 5.000001 3.799999
v 4.375000 5.000001 3.799999
v 4.375000 5.000001 3.799999
v 4.375000 5.000000 0.049999
v 6.875000 5.000001 6.300000
v 6.875000 5.000001 6.300000
v 6.875000 5.000001 3.799999
v 6.875000 5.000001 3.799999
v 6.875000 5.000001 2.549999
v -0.625000 5.000001 6.300000
v -0.625000 5.000001 6.300000
v 4.375000 5.000001 2.549999
v 4.375000 5.000001 2.549999
v 1.875000 5.000001 6.300000
v 1.875000 5.000001 6.300000
v 1.875000 5.000001 6.300000
v 4.375000 5.000001 8.800000
v 4.375000 5.000001 8.800000
v 6.875000 5.000001 8.800000
v 6.875000 5.000001 8.800000
v -0.625000 5.000001 8.800000
v -0.625000 5.000001 8.800000
v 1.875000 5.000001 8.800000
v 1.875000 5.000001 8.800000
v 4.375000 5.000002 11.300000
v 4.375000 5.000002 11.300000
v -0.625000 5.000002 11.300000
v -0.625000 5.000002 11.300000
v 1.875000 5.000002 11.300000
v 1.875000 5.000002 11.300000
v 1.875000 5.000002 11.300000
v 4.375000 5.000002 13.800001
v 4.375000 5.000002 13.800001
v 4.375000 5.000002 13.800001
v 4.375000 5.000002 13.800001
v -0.625000 5.000002 13.800001
v -0.625000 5.000002 13.800001
v 1.875000 5.000002 13.800001
v 1.875000 5.000002 13.800001
v 1.875000 5.000002 13.800001
v 1.875000 5.000002 13.800001
v 4.375000 5.000003 16.300001
v 4.375000 5.000003 16.300001
v -0.625000 5.000003 16.300001
v 1.875000 5.000003 16.300001
v 1.875000 5.000003 16.300001
v 6.875000 5.000002 11.300000
v 6.875000 5.000002 11.300000
v 6.875000 5.000002 13.800001
v 6.875000 5.000002 13.800001
v 6.875000 5.000003 16.300001
v -0.625000 5.000002 12.550001
v 5.625000 5.000001 8.800000
v 5.625000 5.000001 8.800000
v 5.625000 5.000002 11.300000
v 5.625000 5.000002 11.300000
v 5.625000 5.000001 6.300000
v 5.625000 5.000001 6.300000
v 5.625000 5.000001 6.300000
v 4.375000 5.000001 7.550000
v 4.375000 5.000001 7.550000
v 5.625000 5.000001 7.550000
v 5.625000 5.000001 7.550000
v 1.875000 5.000001 7.550000
v 1.875000 5.000001 7.550000
v 2.500000 5.000001 8.800000
v 2.500000 5.000001 8.800000
v 2.500000 5.000002 11.300000
v 1.875000 5.000002 10.675000
v 4.375000 5.000002 10.675000
v 4.375000 5.000002 10.675000
v 2.500000 5.000002 10.675000
v 2.500000 5.000002 10.675000
v 4.375000 4.800002 8.800000
v 4.375000 4.800002 8.800000
v 2.500000 4.800002 8.800000
v 2.500000 4.800002 8.800000
v 4.375000 4.800002 10.675000
v 4.375000 4.800002 10.675000
v 2.500000 4.800002 10.675000
v 2.500000 4.800002 10.675000
vn -0.0000 -1.0000 -0.0000
vn -0.0000 -0.0000 -1.0000
vn -0.0000 -0.0000 1.0000
vn -1.0000 -0.0000 -0.0000
vn 1.0000 -0.0000 -0.0000
vt 0.750000 0.500000
vt 1.000000 0.750000
vt 1.000000 0.500000
vt 0.500000 0.750000
vt 1.000000 1.000000
vt 0.500000 0.500000
vt 1.000000 1.000000
vt 1.000000 0.500000
vt 0.500000 0.500000
vt 0.500000 1.000000
vt 0.750000 1.000000
vt 0.750000 0.750000
vt 1.000000 0.500000
vt 1.000000 0.625000
vt 0.500000 0.500000
vt 0.750000 0.500000
vt 0.625000 1.000000
vt 0.500000 0.500000
vt 0.500000 0.500000
vt 0.500000 0.750000
vt 0.750000 1.000000
vt 0.500000 0.500000
vt 0.500000 1.000000
vt 0.500000 1.000000
vt 0.000000 0.000000
vt 0.500000 0.062500
vt 0.500000 0.000000
vt 0.750000 0.750000
vt 0.500000 1.000000
vt 0.000000 0.062500
s 0
usemtl White
f 981/626/36 987/627/36 983/628/36
f 980/629/36 985/630/36 982/627/36
f 994/631/36 990/632/36 992/633/36
f 989/634/36 993/632/36 988/628/36
f 1001/635/36 1005/627/36 997/629/36
f 1009/632/36 1002/628/36 1044/626/36
f 998/635/36 1010/628/36 999/634/36
f 1013/629/36 1018/628/36 1006/634/36
f 1022/632/36 1015/628/36 1048/626/36
f 1007/635/36 1023/628/36 1011/634/36
f 1026/636/36 1032/627/36 1019/637/36
f 1024/635/36 1028/626/36 1016/634/36
f 1020/636/36 1033/632/36 1046/627/36
f 1041/630/36 1039/638/36 1091/626/36
f 1047/635/36 1042/627/36 1034/629/36
f 1003/636/36 1098/627/36 1055/634/36
f 1103/639/36 1063/628/36 1061/640/36
f 1053/632/36 1089/641/36 1087/636/36
f 1102/642/36 1066/628/36 1072/643/36
f 1073/628/36 1070/644/36 1086/645/36
f 1090/646/36 1083/628/36 1067/644/36
f 1068/632/36 1079/647/36 1074/648/36
f 1075/632/36 1078/643/36 1071/649/36
f 1084/632/36 1076/643/36 1069/649/36
f 1094/629/36 1092/636/36 1096/637/36
f 1097/637/36 1093/636/36 1040/632/36
f 1017/636/36 1095/627/36 1099/629/36
f 1051/650/37 1110/651/37 1100/652/37
f 1106/650/38 1112/651/38 1104/652/38
f 1101/650/39 1115/651/39 1107/652/39
f 1105/650/40 1109/651/40 1052/652/40
f 981/626/36 986/653/36 987/627/36
f 980/629/36 984/635/36 985/630/36
f 994/631/36 991/635/36 990/632/36
f 989/634/36 995/635/36 993/632/36
f 1001/635/36 1014/632/36 1005/627/36
f 1044/626/36 996/634/36 1000/635/36
f 1000/635/36 1009/632/36 1044/626/36
f 998/635/36 1008/632/36 1010/628/36
f 1013/629/36 1027/627/36 1018/628/36
f 1048/626/36 1004/634/36 1012/635/36
f 1012/635/36 1022/632/36 1048/626/36
f 1007/635/36 1021/632/36 1023/628/36
f 1026/636/36 1038/632/36 1032/627/36
f 1024/635/36 1035/636/36 1028/626/36
f 1036/628/36 1025/626/36 1046/627/36
f 1025/626/36 1020/636/36 1046/627/36
f 1091/626/36 1029/634/36 1037/635/36
f 1037/635/36 1041/630/36 1091/626/36
f 1047/635/36 1043/632/36 1042/627/36
f 1055/634/36 1045/635/36 1003/636/36
f 1003/636/36 1049/632/36 1098/627/36
f 1098/627/36 1057/628/36 1055/634/36
f 1061/640/36 1056/635/36 1103/639/36
f 1056/635/36 1058/632/36 1103/639/36
f 1053/632/36 1081/628/36 1089/641/36
f 1072/643/36 1064/654/36 1102/642/36
f 1102/642/36 1059/632/36 1066/628/36
f 1086/645/36 1062/654/36 1065/632/36
f 1065/632/36 1073/628/36 1086/645/36
f 1067/644/36 1060/654/36 1090/646/36
f 1090/646/36 1082/632/36 1083/628/36
f 1068/632/36 1077/628/36 1079/647/36
f 1075/632/36 1080/628/36 1078/643/36
f 1084/632/36 1085/628/36 1076/643/36
f 1094/629/36 1030/635/36 1092/636/36
f 1040/632/36 1054/628/36 1097/637/36
f 1054/628/36 1088/626/36 1097/637/36
f 1099/629/36 1050/635/36 1017/636/36
f 1017/636/36 1031/632/36 1095/627/36
f 1051/650/37 1108/655/37 1110/651/37
f 1106/650/38 1114/655/38 1112/651/38
f 1101/650/39 1111/655/39 1115/651/39
f 1105/650/40 1113/655/40 1109/651/40
o Dark-material.001
v -10.000000 5.000003 20.675001
v -7.500000 5.000003 20.675001
v -7.500000 5.000003 20.675001
v -7.500000 5.000003 20.675001
v -7.500000 5.000003 21.300001
v -6.250000 5.000003 21.300001
v -6.250000 5.000003 20.675001
v -6.250000 5.000003 20.675001
v -10.000000 5.000003 19.425001
v -7.500000 5.000003 19.425001
v -7.500000 5.000003 19.425001
v -6.250000 5.000003 19.425001
v 4.375000 4.800002 8.800000
v 2.500000 4.800002 8.800000
v 4.375000 4.800002 10.675000
v 2.500000 4.800002 10.675000
vn -0.0000 -1.0000 -0.0000
vt 0.097360 0.017394
vt 0.066575 0.031786
vt 0.066575 0.017394
vt 0.460017 0.048179
vt 0.490802 0.017394
vt 0.490802 0.048179
vt 0.900638 0.539983
vt 0.869853 0.476411
vt 0.900638 0.476411
vt 0.722313 0.671130
vt 0.785884 0.607558
vt 0.785884 0.671130
vt 0.097360 0.031786
vt 0.460017 0.017394
vt 0.869853 0.539983
vt 0.722313 0.607558
s 0
usemtl Dark
f 1120/656/41 1122/657/41 1121/658/41
f 1117/659/41 1127/660/41 1123/661/41
f 1116/662/41 1125/663/41 1118/664/41
f 1128/665/41 1131/666/41 1129/667/41
f 1120/656/41 1119/668/41 1122/657/41
f 1117/659/41 1126/669/41 1127/660/41
f 1116/662/41 1124/670/41 1125/663/41
f 1128/665/41 1130/671/41 1131/666/41
o Light-material.001
v -10.000000 5.000003 20.675001
v -10.000000 5.000003 20.675001
v -10.000000 5.000003 20.675001
v -10.000000 5.000003 21.300001
v -10.000000 5.000003 21.300001
v -10.000000 5.000003 21.300001
v -10.000000 5.000003 21.300001
v -10.000000 5.000003 21.300001
v -10.000000 5.000003 21.300001
v -10.000000 5.000003 21.925001
v -10.000000 5.000003 21.925001
v -10.000000 5.000003 21.925001
v -7.500000 5.000003 20.675001
v -7.500000 5.000003 20.675001
v -7.500000 5.000003 20.675001
v -7.500000 5.000003 21.300001
v -7.500000 5.000003 21.300001
v -7.500000 5.000003 21.300001
v -7.500000 5.000003 21.300001
v -7.500000 5.000003 21.300001
v -7.500000 5.000003 21.300001
v -7.500000 5.000003 21.300001
v -7.500000 5.000003 21.300001
v -7.500000 5.000003 21.300001
v -7.500000 5.000003 21.925001
v -7.500000 5.000003 21.925001
v -7.500000 5.000003 21.925001
v -7.500000 5.000003 21.925001
v -7.500000 5.000003 21.925001
v -7.500000 5.000003 21.925001
v -5.000000 5.000003 21.300001
v -5.000000 5.000003 21.300001
v -5.000000 5.000003 21.925001
v -5.000000 5.000003 21.925001
v -5.000000 5.000003 21.925001
v -9.950000 5.100003 21.875002
v -9.950000 5.100003 21.875002
v -9.950000 5.100003 21.875002
v -9.950000 5.100003 21.875002
v -9.950000 5.100003 21.350002
v -9.950000 5.100003 21.350002
v -9.950000 5.100003 21.350002
v -9.950000 5.100003 21.350002
v -7.550000 5.100003 21.350002
v -7.550000 5.100003 21.350002
v -7.550000 5.100003 21.350002
v -7.550000 5.100003 21.350002
v -7.550000 5.100003 21.875002
v -7.550000 5.100003 21.875002
v -7.550000 5.100003 21.875002
v -7.550000 5.100003 21.875002
v -9.950000 5.100003 21.250002
v -9.950000 5.100003 21.250002
v -9.950000 5.100003 21.250002
v -9.950000 5.100003 21.250002
v -9.950000 5.100003 20.725002
v -9.950000 5.100003 20.725002
v -9.950000 5.100003 20.725002
v -9.950000 5.100003 20.725002
v -7.550000 5.100003 20.725002
v -7.550000 5.100003 20.725002
v -7.550000 5.100003 20.725002
v -7.550000 5.100003 20.725002
v -7.550000 5.100003 21.250002
v -7.550000 5.100003 21.250002
v -7.550000 5.100003 21.250002
v -7.550000 5.100003 21.250002
v -7.450000 5.100003 21.875002
v -7.450000 5.100003 21.875002
v -7.450000 5.100003 21.875002
v -7.450000 5.100003 21.875002
v -7.450000 5.100003 21.350002
v -7.450000 5.100003 21.350002
v -7.450000 5.100003 21.350002
v -7.450000 5.100003 21.350002
v -5.050000 5.100003 21.350002
v -5.050000 5.100003 21.350002
v -5.050000 5.100003 21.350002
v -5.050000 5.100003 21.350002
v -5.050000 5.100003 21.350002
v -5.050000 5.100003 21.875002
v -5.050000 5.100003 21.875002
v -5.050000 5.100003 21.875002
v -5.050000 5.100003 21.875002
v -6.250000 5.000003 21.300001
v -6.250000 5.000003 21.300001
v -6.250000 5.000003 21.300001
v -5.625000 5.000001 8.800000
v -5.625000 5.000001 8.800000
v -5.625000 5.000001 8.800000
v -5.625000 5.000001 6.300000
v -5.625000 5.000001 6.300000
v -5.625000 5.000001 6.300000
v -6.250000 5.000001 8.800000
v -6.250000 5.000001 8.800000
v -6.250000 5.000001 8.800000
v -6.250000 5.000001 6.300000
v -6.250000 5.000001 6.300000
v -6.250000 5.000001 6.300000
v -6.200000 5.100001 8.750000
v -6.200000 5.100001 8.750000
v -6.200000 5.100001 8.750000
v -6.200000 5.100001 8.750000
v -5.675000 5.100001 8.750000
v -5.675000 5.100001 8.750000
v -5.675000 5.100001 8.750000
v -5.675000 5.100001 8.750000
v -5.675000 5.100001 6.349999
v -5.675000 5.100001 6.349999
v -5.675000 5.100001 6.349999
v -5.675000 5.100001 6.349999
v -6.200000 5.100001 6.349999
v -6.200000 5.100001 6.349999
v -6.200000 5.100001 6.349999
v -6.200000 5.100001 6.349999
vn -0.0000 -1.0000 -0.0000
vn 0.8944 -0.4472 -0.0000
vn -0.0000 -0.4472 0.8944
vn -0.8944 -0.4472 -0.0000
vn -0.0000 -0.4472 -0.8944
vt 0.500000 0.500000
s 0
usemtl Light
f 1171/672/42 1179/672/42 1167/672/42
f 1187/672/42 1195/672/42 1183/672/42
f 1203/672/42 1212/672/42 1199/672/42
f 1135/672/43 1168/672/43 1141/672/43
f 1148/672/44 1172/672/44 1137/672/44
f 1157/672/45 1176/672/45 1149/672/45
f 1142/672/46 1180/672/46 1158/672/46
f 1132/672/43 1184/672/43 1136/672/43
f 1145/672/44 1188/672/44 1133/672/44
f 1150/672/45 1192/672/45 1144/672/45
f 1138/672/46 1196/672/46 1151/672/46
f 1147/672/43 1200/672/43 1156/672/43
f 1216/672/44 1209/672/44 1204/672/44
f 1164/672/45 1208/672/45 1162/672/45
f 1159/672/46 1213/672/46 1165/672/46
f 1235/672/42 1243/672/42 1239/672/42
f 1240/672/45 1219/672/45 1236/672/45
f 1232/672/43 1228/672/43 1244/672/43
f 1245/672/44 1222/672/44 1241/672/44
f 1237/672/46 1225/672/46 1233/672/46
f 1171/672/42 1175/672/42 1179/672/42
f 1187/672/42 1191/672/42 1195/672/42
f 1203/672/42 1207/672/42 1212/672/42
f 1139/672/43 1173/672/43 1169/672/43
f 1153/672/44 1177/672/44 1174/672/44
f 1160/672/45 1181/672/45 1178/672/45
f 1143/672/46 1170/672/46 1182/672/46
f 1134/672/43 1189/672/43 1185/672/43
f 1146/672/44 1194/672/44 1190/672/44
f 1154/672/45 1197/672/45 1193/672/45
f 1140/672/46 1186/672/46 1198/672/46
f 1152/672/43 1205/672/43 1201/672/43
f 1206/672/44 1155/672/44 1217/672/44
f 1218/672/44 1163/672/44 1211/672/44
f 1166/672/45 1214/672/45 1210/672/45
f 1161/672/46 1202/672/46 1215/672/46
f 1235/672/42 1231/672/42 1243/672/42
f 1242/672/45 1223/672/45 1220/672/45
s 1
f 1234/672/43 1226/672/43 1229/672/43
s 0
f 1246/672/44 1230/672/44 1224/672/44
f 1238/672/46 1221/672/46 1227/672/46
o Floor-material
v -5.000000 5.000003 21.300001
v -5.000000 5.000003 21.300001
v -5.000000 5.000003 21.925001
v -3.125000 5.000003 21.300001
v -3.125000 5.000003 21.300001
v -3.125000 5.000003 21.925001
v -6.250000 5.000003 21.300001
v -6.250000 5.000003 16.300001
v -6.250000 5.000003 16.300001
v -6.250000 5.000003 16.300001
v -6.250000 5.000003 20.675001
v -6.250000 5.000003 20.675001
v -3.125000 5.000003 18.175001
v -3.125000 5.000003 18.175001
v -3.125000 5.000003 20.675001
v -3.125000 5.000003 20.675001
v -6.250000 5.000003 19.425001
v -6.250000 5.000003 19.425001
v -10.000000 5.000003 18.175001
v -7.500000 5.000003 18.175001
v -10.000000 5.000003 17.550001
v -10.000000 5.000003 17.550001
v -8.750000 5.000003 17.550001
v -8.750000 5.000003 17.550001
v -6.250000 5.000003 17.550001
v -6.250000 5.000003 17.550001
v -6.250000 5.000003 17.550001
v -3.125000 5.000003 17.550001
v -3.125000 5.000003 17.550001
v -6.250000 5.000003 18.175001
v -6.250000 5.000003 18.175001
v -6.250000 5.000003 18.175001
v -3.125000 5.000003 19.425001
v -3.125000 5.000003 19.425001
v -3.125000 5.000003 16.300001
v -3.125000 5.000003 16.300001
v -8.750000 5.000003 16.300001
v -8.750000 5.000003 16.300001
v -8.750000 5.000003 16.300001
v -10.000000 5.000003 16.300001
v -10.000000 5.000003 16.300001
v -6.250000 5.000002 15.675001
v -6.250000 5.000002 15.675001
v -6.250000 5.000002 15.675001
v -3.125000 5.000002 15.675001
v -3.125000 5.000002 15.675001
v -10.000000 5.000002 15.675001
v -10.000000 5.000002 15.675001
v -8.750000 5.000002 15.675001
v -8.750000 5.000002 15.675001
v -8.750000 5.000002 15.675001
v -6.250000 5.000002 10.675000
v -6.250000 5.000002 10.675000
v -3.125000 5.000002 10.675000
v -3.125000 5.000002 10.675000
v -3.125000 5.000002 10.675000
v -10.000000 5.000002 10.675000
v -8.750000 5.000002 10.675000
v -6.250000 5.000002 13.175001
v -8.750000 5.000002 13.175001
v -6.250000 5.000001 8.800000
v -3.125000 5.000001 8.800000
v -3.125000 5.000001 8.800000
v -3.125000 5.000001 8.800000
v -5.625000 5.000001 8.800000
v -5.625000 5.000001 8.800000
v -3.125000 5.000001 6.300000
v -3.125000 5.000001 6.300000
v -5.625000 5.000001 6.300000
v -3.125000 5.000002 12.550001
v -3.125000 5.000002 12.550001
v -1.875000 5.000002 12.550001
v -1.875000 5.000002 12.550001
v -1.875000 5.000002 12.550001
v -1.875000 5.000001 6.300000
v -1.875000 5.000001 6.300000
v -1.875000 5.000001 6.300000
v -2.500000 5.000001 6.300000
v -2.500000 5.000001 6.300000
v -2.500000 5.000001 6.300000
v -2.500000 5.000002 12.550001
v -2.500000 5.000002 12.550001
v -1.875000 5.000000 1.299998
v -1.875000 5.000000 1.299998
v -2.500000 5.000000 1.299998
v -2.500000 5.000000 1.299998
v -2.500000 5.000001 3.799999
v -2.500000 5.000001 3.799999
v -1.875000 5.000001 3.799999
v -1.875000 5.000001 3.799999
v -1.875000 5.000000 0.049999
v -1.875000 5.000000 0.049999
v -1.875000 5.000000 0.049999
v 0.625000 5.000000 0.049999
v 0.625000 5.000000 0.049999
v 3.125000 5.000000 0.049999
v 3.125000 5.000000 0.049999
v 4.375000 5.000000 0.049999
v 4.375000 5.000000 0.049999
v 4.375000 5.000000 0.049999
v 6.875000 5.000001 6.300000
v 6.875000 5.000001 6.300000
v 6.875000 5.000001 3.799999
v 6.875000 5.000001 2.549999
v -0.625000 5.000001 6.300000
v -1.875000 5.000000 -0.575002
v -1.875000 5.000000 -0.575002
v 0.625000 5.000000 -0.575002
v 0.625000 5.000000 -0.575002
v 3.125000 5.000000 -0.575002
v 3.125000 5.000000 -0.575002
v 4.375000 5.000000 -0.575002
v 4.375000 5.000000 -0.575002
v -2.500000 5.000000 0.049999
v -2.500000 5.000000 0.049999
v -2.500000 5.000000 -0.575002
v 5.000000 5.000000 -0.575002
v 5.000000 5.000000 -0.575002
v 4.375000 5.000001 2.549999
v 7.500000 5.000001 6.300000
v 7.500000 5.000001 6.300000
v 7.500000 5.000001 3.799999
v 4.375000 5.000001 8.800000
v 4.375000 5.000001 8.800000
v 4.375000 5.000001 8.800000
v 6.875000 5.000001 8.800000
v 6.875000 5.000001 8.800000
v -0.625000 5.000001 8.800000
v -0.625000 5.000001 8.800000
v 1.875000 5.000001 8.800000
v 1.875000 5.000001 8.800000
v 4.375000 5.000002 11.300000
v 4.375000 5.000002 11.300000
v -0.625000 5.000002 11.300000
v -0.625000 5.000002 11.300000
v 1.875000 5.000002 11.300000
v -0.625000 5.000002 13.800001
v -0.625000 5.000002 13.800001
v -0.625000 5.000003 16.300001
v 7.500000 5.000001 8.800000
v 7.500000 5.000001 8.800000
v 6.875000 5.000002 11.300000
v 6.875000 5.000002 11.300000
v 7.500000 5.000002 11.300000
v 7.500000 5.000002 11.300000
v 6.875000 5.000002 13.800001
v 6.875000 5.000002 13.800001
v 7.500000 5.000002 13.800001
v 7.500000 5.000002 13.800001
v 6.875000 5.000003 16.300001
v 7.500000 5.000003 16.300001
v -1.875000 5.000001 8.800265
v -1.875000 5.000001 8.800265
v -1.875000 5.000001 8.800265
v -1.875000 5.000002 11.300080
v -1.875000 5.000002 11.300080
v -1.875000 5.000002 11.300080
v -0.625000 5.000002 12.550001
v -0.625000 5.000002 12.550001
v -1.875000 5.000002 13.800001
v -1.875000 5.000002 13.800001
v -1.875000 5.000003 16.300001
v 5.625000 5.000001 8.800000
v 5.625000 5.000001 8.800000
v 5.625000 5.000002 11.300000
v 4.375000 5.000001 7.550000
v 4.375000 5.000001 7.550000
v 5.625000 5.000001 7.550000
v 1.875000 5.000001 7.550000
v 2.500000 5.000001 8.800000
v 2.500000 5.000001 8.800000
v 2.500000 5.000002 11.300000
v 2.500000 5.000002 11.300000
v 1.875000 5.000002 10.675000
v 1.875000 5.000002 10.675000
v 4.375000 5.000002 10.675000
v 4.375000 5.000002 10.675000
v 2.500000 5.000002 10.675000
v 2.500000 5.000002 10.675000
v 2.500000 5.000002 10.675000
vn -0.0000 -1.0000 -0.0000
vt 0.250000 0.250000
vt 1.000000 0.000000
vt 0.250000 0.000000
vt 0.000000 1.500000
vt 1.250000 2.000000
vt 1.250000 1.500000
vt 0.000000 0.250000
vt 1.250000 0.750000
vt 1.250000 0.250000
vt 0.500000 0.250000
vt 1.500000 0.250000
vt 1.000000 0.000000
vt 0.000000 0.750000
vt 1.250000 1.250000
vt 0.000000 1.250000
vt 0.500000 0.000000
vt 0.500000 0.750000
vt 0.000000 0.000000
vt 0.500000 0.250000
vt 1.250000 0.000000
vt 1.000000 0.250000
vt 0.000000 2.250000
vt 0.500000 2.250000
vt 0.500000 1.250000
vt 0.000000 2.250001
vt 1.250000 2.250001
vt 1.250000 1.500000
vt 0.000000 3.000001
vt 0.250000 3.000001
vt 1.250000 4.000002
vt 1.250000 3.000001
vt 1.500000 4.000002
vt 1.750000 4.000002
vt 1.750000 2.999895
vt 1.500000 5.000002
vt 1.750000 6.000004
vt 1.750000 5.000003
vt 1.500000 6.000003
vt 1.750001 6.500004
vt 2.250000 0.000000
vt 2.750000 0.250000
vt 2.750000 0.000000
vt 2.250000 0.250000
vt 0.250000 0.000000
vt 0.250000 0.250000
vt 3.000000 0.250000
vt 2.750000 -1.000000
vt -0.000000 1.000000
vt 0.250000 0.000000
vt -0.000000 0.000000
vt -0.000000 -1.000000
vt 0.250000 -1.000000
vt -0.000000 -2.000000
vt 0.250000 -2.000000
vt -0.000000 -3.000001
vt 0.250000 -3.000000
vt -0.000000 -4.000002
vt 0.500000 0.500000
vt 0.000000 1.499894
vt 0.500000 1.500000
vt 0.000000 2.500000
vt 0.000000 0.499967
vt 0.000000 -0.500000
vt 0.500000 -0.500000
vt 0.000000 -1.500000
vt 1.500000 0.000000
vt 1.000000 1.000000
vt 1.500000 1.500000
vt 1.500000 1.000000
vt 1.000000 1.500000
vt 0.250000 1.000000
vt 0.000000 1.000000
vt 0.000000 2.000000
vt 0.000000 0.750000
vt 0.000000 1.250000
vt 0.250000 4.000002
vt 1.500000 1.500000
vt 1.750000 1.500000
vt 1.750000 1.999968
vt 1.500000 6.500004
vt 3.749998 -0.999999
vt 0.250000 1.000000
vt 0.250000 -4.000001
vt 0.500000 2.500000
vt 0.500000 -1.500000
s 0
usemtl Floor
f 1247/673/47 1252/674/47 1249/675/47
f 1271/676/47 1281/677/47 1274/678/47
f 1257/679/47 1279/680/47 1261/681/47
f 1269/682/47 1272/683/47 1266/684/47
f 1263/685/47 1259/686/47 1280/680/47
f 1276/687/47 1275/678/47 1260/686/47
f 1262/681/47 1248/688/47 1258/679/47
f 1267/679/47 1283/689/47 1270/682/47
f 1286/690/47 1295/691/47 1284/688/47
f 1254/690/47 1291/681/47 1282/692/47
f 1288/693/47 1285/690/47 1296/679/47
f 1303/694/47 1304/695/47 1306/696/47
f 1298/697/47 1300/698/47 1316/699/47
f 1299/697/47 1307/700/47 1311/701/47
f 1312/701/47 1313/702/47 1308/703/47
f 1309/703/47 1314/702/47 1324/704/47
f 1325/704/47 1321/705/47 1398/706/47
f 1333/707/47 1329/708/47 1335/709/47
f 1326/704/47 1336/709/47 1322/705/47
f 1331/710/47 1337/711/47 1330/708/47
f 1342/712/47 1358/713/47 1344/714/47
f 1340/692/47 1356/715/47 1343/712/47
f 1338/716/47 1354/681/47 1341/692/47
f 1339/716/47 1362/679/47 1352/717/47
f 1345/714/47 1359/713/47 1363/718/47
f 1364/718/47 1365/719/47 1346/714/47
f 1349/720/47 1366/721/47 1347/722/47
f 1367/721/47 1372/723/47 1348/722/47
f 1422/693/47 1418/675/47 1424/673/47
f 1386/724/47 1388/725/47 1373/723/47
f 1390/726/47 1392/727/47 1389/725/47
f 1394/728/47 1396/729/47 1393/727/47
f 1380/730/47 1399/731/47 1374/732/47
f 1323/733/47 1375/732/47 1400/731/47
f 1401/734/47 1404/688/47 1318/690/47
f 1405/688/47 1406/735/47 1319/690/47
f 1383/736/47 1408/737/47 1407/735/47
f 1411/738/47 1378/674/47 1423/693/47
f 1369/739/47 1414/740/47 1409/741/47
f 1412/742/47 1370/739/47 1416/743/47
f 1425/673/47 1382/690/47 1420/679/47
f 1417/743/47 1421/679/47 1376/744/47
f 1247/673/47 1250/693/47 1252/674/47
f 1271/676/47 1255/745/47 1281/677/47
f 1257/679/47 1264/685/47 1279/680/47
f 1277/738/47 1266/684/47 1272/683/47
f 1266/684/47 1265/690/47 1269/682/47
f 1265/690/47 1268/679/47 1269/682/47
f 1263/685/47 1278/687/47 1259/686/47
f 1276/687/47 1273/676/47 1275/678/47
f 1251/692/47 1248/688/47 1262/681/47
f 1248/688/47 1253/690/47 1258/679/47
f 1267/679/47 1287/746/47 1283/689/47
f 1286/690/47 1293/679/47 1295/691/47
f 1254/690/47 1289/679/47 1291/681/47
f 1288/693/47 1256/674/47 1285/690/47
f 1306/696/47 1297/691/47 1294/679/47
f 1294/679/47 1303/694/47 1306/696/47
f 1316/699/47 1292/681/47 1305/747/47
f 1292/681/47 1290/679/47 1305/747/47
f 1305/747/47 1298/697/47 1316/699/47
f 1310/703/47 1301/698/47 1311/701/47
f 1301/698/47 1299/697/47 1311/701/47
f 1312/701/47 1315/748/47 1313/702/47
f 1317/699/47 1302/698/47 1327/749/47
f 1302/698/47 1309/703/47 1327/749/47
f 1327/749/47 1309/703/47 1324/704/47
f 1320/750/47 1328/749/47 1402/751/47
f 1328/749/47 1325/704/47 1398/706/47
f 1402/751/47 1328/749/47 1398/706/47
f 1333/707/47 1332/710/47 1329/708/47
f 1326/704/47 1334/707/47 1336/709/47
f 1331/710/47 1360/752/47 1337/711/47
f 1342/712/47 1357/715/47 1358/713/47
f 1340/692/47 1355/681/47 1356/715/47
f 1338/716/47 1353/717/47 1354/681/47
f 1339/716/47 1361/690/47 1362/679/47
f 1364/718/47 1350/753/47 1365/719/47
f 1349/720/47 1368/754/47 1366/721/47
f 1367/721/47 1387/724/47 1372/723/47
f 1422/693/47 1379/674/47 1418/675/47
f 1386/724/47 1391/726/47 1388/725/47
f 1390/726/47 1395/728/47 1392/727/47
f 1394/728/47 1397/755/47 1396/729/47
f 1380/730/47 1403/734/47 1399/731/47
f 1323/733/47 1351/756/47 1375/732/47
f 1401/734/47 1381/730/47 1404/688/47
f 1405/688/47 1384/736/47 1406/735/47
f 1383/736/47 1385/757/47 1408/737/47
f 1423/693/47 1371/739/47 1410/741/47
f 1410/741/47 1411/738/47 1423/693/47
f 1369/739/47 1413/742/47 1414/740/47
f 1416/743/47 1377/744/47 1415/676/47
f 1415/676/47 1412/742/47 1416/743/47
f 1425/673/47 1419/675/47 1382/690/47
f 1417/743/47 1426/673/47 1421/679/47
o Floor-material.001
v -2.500000 0.000001 6.300001
v -2.500000 0.000001 6.300001
v -2.500000 0.000001 6.300001
v -2.500000 0.000002 12.550002
v -2.500000 0.000002 12.550002
v -3.125000 0.000001 6.300001
v -3.125000 0.000001 6.300001
v -3.125000 0.000002 12.550002
v -3.125000 0.000002 12.550002
v -3.125000 0.000002 12.550002
v -6.250000 0.000001 6.300001
v -6.250000 0.000002 12.550002
v -6.250000 0.000002 12.550002
v -6.250000 0.000002 12.550002
v -6.250000 0.000002 12.550002
v -1.875000 0.000001 6.300001
v -1.875000 0.000001 6.300001
v -1.875000 0.000001 6.300001
v -1.875000 0.000001 6.300001
v -1.875000 0.000002 12.550002
v -1.875000 0.000002 12.550002
v -1.875000 0.000002 12.550002
v -2.500000 -0.000000 -0.575000
v -1.875000 -0.000000 -0.575000
v -1.875000 -0.000000 -0.575000
v 5.000000 0.000001 6.300001
v 5.000000 0.000001 6.300001
v 5.000000 0.000001 6.300001
v 5.000000 0.000001 6.300001
v 5.000000 0.000002 12.550002
v 5.000000 0.000002 12.550002
v 5.000000 0.000002 12.550002
v 5.000000 0.000002 12.550002
v 5.000000 -0.000000 -0.575000
v 5.000000 -0.000000 -0.575000
v 5.000000 -0.000000 -0.575000
v 7.500000 0.000002 12.550002
v 7.500000 0.000002 12.550002
v 6.875000 0.000001 3.800000
v 6.875000 0.000001 3.800000
v 6.875000 0.000001 3.800000
v -1.875000 0.000002 16.300001
v 5.000000 0.000002 16.300001
v 5.000000 0.000002 16.300001
v 7.500000 0.000002 16.300001
v -6.250000 0.000001 10.675001
v -6.250000 0.000001 10.675001
v -10.000000 0.000002 12.550002
v -10.000000 0.000002 12.550002
v -10.000000 0.000001 10.675001
v -3.125000 0.000003 21.925001
v -6.250000 0.000003 21.925001
v -6.250000 0.000003 21.925001
v -10.000000 0.000003 21.925001
v 7.500000 0.000001 6.300001
v 7.500000 0.000001 6.300001
v 7.500000 0.000001 6.300001
v 7.500000 0.000001 3.800000
v 6.875000 0.000000 2.550000
v -1.875000 0.000001 8.799964
v -1.875000 0.000001 8.799964
v -1.875000 0.000001 10.675001
v -1.875000 0.000001 10.675001
v 5.000000 0.000001 8.799964
v 5.000000 0.000001 8.799964
v 5.000000 0.000001 10.675001
v 5.000000 0.000001 10.675001
v 2.499954 0.000001 6.300001
v 2.499954 0.000001 6.300001
v 4.374948 0.000001 6.300001
v 4.374948 0.000001 6.300001
v 2.499954 0.000002 12.550002
v 2.499954 0.000002 12.550002
v 4.374948 0.000002 12.550002
v 4.374948 0.000002 12.550002
v 2.499954 0.000001 8.799964
v 4.374948 0.000001 8.799964
v 2.499954 0.000001 10.675001
v 4.374948 0.000001 10.675001
vn -0.0000 1.0000 -0.0000
vt 0.000000 -1.500000
vt 0.250000 1.000000
vt 0.250000 -1.500000
vt -1.250000 -1.500000
vt -1.250000 0.250003
vt 0.500000 1.000000
vt 0.500000 0.250000
vt 0.500000 -1.500000
vt 0.250000 -4.250000
vt 2.999979 -1.500000
vt 3.250002 -1.500000
vt 3.250002 -4.250004
vt 2.999978 1.000000
vt 3.249999 0.250000
vt 2.999978 0.250000
vt 4.000002 -2.500002
vt 4.249998 1.000000
vt 4.249998 -1.500000
vt 3.249999 -0.500015
vt 3.249999 1.000000
vt 4.249999 2.500000
vt 2.249981 1.000000
vt 0.500000 2.499999
vt 3.249998 2.499999
vt -2.750000 1.000004
vt -1.250000 1.000000
vt -1.250000 4.749989
vt 0.000000 4.749998
vt 0.000000 1.000000
vt 4.250002 -1.500001
vt 4.250001 -2.500002
vt 4.000002 -3.000003
vt 2.999978 -0.500015
vt 3.249999 -1.500000
vt 0.500000 -0.500015
vt 2.249982 -1.500000
vt 2.249981 -0.500015
vt 2.249981 0.250000
vt 0.500000 -4.250000
vt 3.249999 2.500000
vt -2.750000 0.250005
vt -2.750000 4.749993
vt -1.250000 4.749999
s 0
usemtl Floor
f 1432/758/48 1430/759/48 1427/760/48
f 1433/758/48 1437/761/48 1472/762/48
f 1431/759/48 1446/763/48 1488/764/48
f 1442/765/48 1449/766/48 1428/760/48
f 1496/767/48 1452/768/48 1460/769/48
f 1500/770/48 1492/771/48 1505/772/48
f 1453/768/48 1465/773/48 1461/769/48
f 1463/774/48 1481/775/48 1490/776/48
f 1456/777/48 1471/778/48 1464/774/48
f 1498/779/48 1468/780/48 1469/781/48
f 1473/762/48 1474/782/48 1438/783/48
f 1475/782/48 1478/784/48 1439/783/48
f 1440/783/48 1477/785/48 1434/786/48
f 1466/773/48 1482/787/48 1484/788/48
f 1462/769/48 1467/773/48 1485/789/48
f 1503/790/48 1454/791/48 1497/767/48
f 1503/790/48 1492/771/48 1491/776/48
f 1486/792/48 1494/793/48 1443/765/48
f 1502/794/48 1497/767/48 1494/793/48
f 1486/792/48 1504/795/48 1502/794/48
f 1447/763/48 1504/795/48 1489/764/48
f 1499/779/48 1505/772/48 1504/795/48
f 1432/758/48 1435/786/48 1430/759/48
f 1441/783/48 1436/786/48 1472/762/48
f 1436/786/48 1433/758/48 1472/762/48
f 1444/765/48 1429/760/48 1487/792/48
f 1429/760/48 1431/759/48 1487/792/48
f 1487/792/48 1431/759/48 1488/764/48
f 1442/765/48 1450/796/48 1449/766/48
f 1460/769/48 1451/796/48 1495/793/48
f 1451/796/48 1445/765/48 1495/793/48
f 1495/793/48 1496/767/48 1460/769/48
f 1500/770/48 1457/777/48 1492/771/48
f 1453/768/48 1483/787/48 1465/773/48
f 1481/775/48 1455/791/48 1490/776/48
f 1490/776/48 1493/771/48 1463/774/48
f 1493/771/48 1458/777/48 1463/774/48
f 1456/777/48 1470/797/48 1471/778/48
f 1469/781/48 1459/777/48 1501/770/48
f 1498/779/48 1448/763/48 1468/780/48
f 1469/781/48 1501/770/48 1498/779/48
f 1473/762/48 1476/798/48 1474/782/48
f 1475/782/48 1480/799/48 1478/784/48
f 1440/783/48 1479/800/48 1477/785/48
f 1503/790/48 1491/776/48 1454/791/48
f 1503/790/48 1505/772/48 1492/771/48
f 1486/792/48 1502/794/48 1494/793/48
f 1502/794/48 1503/790/48 1497/767/48
f 1486/792/48 1489/764/48 1504/795/48
f 1447/763/48 1499/779/48 1504/795/48
f 1499/779/48 1500/770/48 1505/772/48
o Dark-material.002
v 2.499954 0.000001 8.799964
v 4.374948 0.000001 8.799964
v 2.499954 0.000001 10.675001
v 4.374948 0.000001 10.675001
vn -0.0000 1.0000 -0.0000
vt 0.157178 0.571065
vt 0.079089 0.500076
vt 0.157178 0.500076
vt 0.079089 0.571065
s 0
usemtl Dark
f 1506/801/49 1509/802/49 1507/803/49
f 1506/801/49 1508/804/49 1509/802/49
o Laser-material
v -2.575086 0.706372 5.675748
v -2.523582 0.706372 5.761466
v 4.196537 0.706371 1.974630
v 4.248041 0.706371 2.060347
v -2.551566 0.760676 5.714890
v -2.551566 0.660676 5.714890
v 4.220055 0.760675 2.013772
v 4.220055 0.660675 2.013772
v 1.922747 0.706371 -0.595239
v 1.822747 0.706371 -0.595239
v 1.922749 0.706373 16.917751
v 1.822749 0.706373 16.917751
v 1.877084 0.760676 -0.595236
v 1.877084 0.660676 -0.595236
v 1.877085 0.760677 16.917751
v 1.877085 0.660677 16.917751
v 3.483003 -0.018939 9.735667
v 3.383003 -0.018939 9.735667
v 3.483004 4.794286 9.735666
v 3.383004 4.794286 9.735666
v 3.437339 -0.018938 9.681362
v 3.437339 -0.018938 9.781362
v 3.437339 -0.018938 9.781362
v 3.437340 4.794286 9.681362
v 3.437340 4.794286 9.681362
v 3.437340 4.794286 9.781361
vn -0.0000 1.0000 -0.0000
vn 0.4796 -0.0000 0.8775
vn -1.0000 -0.0000 -0.0000
vn -0.0000 -0.0000 -1.0000
vt 0.976029 3.151656
vt 0.000000 1.000000
vt 0.976029 4.151656
vt 0.023971 1.000000
vt 1.000000 0.000000
vt 0.023971 0.000000
vt 1.000000 1.000000
vt 0.000000 0.000000
s 0
usemtl Laser
f 1511/805/50 1512/806/50 1510/807/50
f 1515/808/51 1516/809/51 1514/810/51
f 1518/811/50 1521/812/50 1520/806/50
f 1523/806/52 1524/809/52 1522/812/52
f 1527/809/53 1528/806/53 1526/811/53
f 1531/806/52 1533/809/52 1530/812/52
f 1511/805/50 1513/812/50 1512/806/50
s 1
f 1515/808/51 1517/811/51 1516/809/51
s 0
f 1518/811/50 1519/809/50 1521/812/50
f 1523/806/52 1525/811/52 1524/809/52
f 1527/809/53 1529/812/53 1528/806/53
f 1532/806/52 1535/811/52 1534/809/52
