{
  "accessors": [
    {
      "bufferView": 2,
      "componentType": 5126,
      "count": 345,
      "max": [
        7.5,
        0.574999988079071,
        5.0
      ],
      "min": [
        -8.75,
        -21.924999237060547,
        0.0
      ],
      "type": "VEC3"
    },
    {
      "bufferView": 2,
      "byteOffset": 4140,
      "componentType": 5126,
      "count": 345,
      "max": [
        1.0,
        1.0,
        0.0
      ],
      "min": [
        -1.0,
        -1.0,
        -1.0
      ],
      "type": "VEC3"
    },
    {
      "bufferView": 3,
      "componentType": 5126,
      "count": 345,
      "max": [
        1.0,
        1.0,
        1.0,
        1.0
      ],
      "min": [
        -1.0,
        -1.0,
        -4.768372150465439e-07,
        1.0
      ],
      "type": "VEC4"
    },
    {
      "bufferView": 1,
      "componentType": 5126,
      "count": 345,
      "max": [
        1.0001089572906494,
        1.0009770393371582
      ],
      "min": [
        0.0,
        -1.4901199563155387e-07
      ],
      "type": "VEC2"
    },
    {
      "bufferView": 1,
      "byteOffset": 2760,
      "componentType": 5126,
      "count": 345,
      "max": [
        0.9826055765151978,
        0.9826055765151978
      ],
      "min": [
        0.0010010000551119447,
        0.0010010000551119447
      ],
      "type": "VEC2"
    },
    {
      "bufferView": 0,
      "componentType": 5125,
      "count": 543,
      "type": "SCALAR"
    },
    {
      "bufferView": 2,
      "byteOffset": 8280,
      "componentType": 5126,
      "count": 372,
      "max": [
        6.875,
        0.574999988079071,
        5.0
      ],
      "min": [
        -10.0,
        -21.924999237060547,
        -1.4987600138738344e-07
      ],
      "type": "VEC3"
    },
    {
      "bufferView": 2,
      "byteOffset": 12744,
      "componentType": 5126,
      "count": 372,
      "max": [
        1.0,
        1.0,
        1.0
      ],
      "min": [
        -1.0,
        -1.0,
        -1.0
      ],
      "type": "VEC3"
    },
    {
      "bufferView": 3,
      "byteOffset": 5520,
      "componentType": 5126,
      "count": 372,
      "max": [
        1.0,
        1.0,
        1.0,
        1.0
      ],
      "min": [
        -1.0,
        -1.0,
        -1.0,
        -1.0
      ],
      "type": "VEC4"
    },
    {
      "bufferView": 1,
      "byteOffset": 5520,
      "componentType": 5126,
      "count": 372,
      "max": [
        0.9826055765151978,
        0.9826055765151978
      ],
      "min": [
        0.0010010000551119447,
        0.0010010000551119447
      ],
      "type": "VEC2"
    },
    {
      "bufferView": 1,
      "byteOffset": 8496,
      "componentType": 5126,
      "count": 372,
      "max": [
        1.0,
        1.0009770393371582
      ],
      "min": [
        0.0,
        -1.043080033014121e-06
      ],
      "type": "VEC2"
    },
    {
      "bufferView": 0,
      "byteOffset": 2172,
      "componentType": 5125,
      "count": 555,
      "type": "SCALAR"
    },
    {
      "bufferView": 2,
      "byteOffset": 17208,
      "componentType": 5126,
      "count": 196,
      "max": [
        -5.0,
        -6.199999809265137,
        5.0
      ],
      "min": [
        -10.100000381469727,
        -21.924999237060547,
        0.0
      ],
      "type": "VEC3"
    },
    {
      "bufferView": 2,
      "byteOffset": 19560,
      "componentType": 5126,
      "count": 196,
      "max": [
        1.0,
        0.8944312930107117,
        0.8944272994995117
      ],
      "min": [
        -0.8944287300109863,
        -1.0,
        -0.8944289088249207
      ],
      "type": "VEC3"
    },
    {
      "bufferView": 1,
      "byteOffset": 11472,
      "componentType": 5126,
      "count": 196,
      "max": [
        0.9989989995956421,
        0.9989989995956421
      ],
      "min": [
        0.017394419759511948,
        0.0010010000551119447
      ],
      "type": "VEC2"
    },
    {
      "bufferView": 1,
      "byteOffset": 13040,
      "componentType": 5126,
      "count": 196,
      "max": [
        1.0,
        1.0
      ],
      "min": [
        0.0,
        0.0
      ],
      "type": "VEC2"
    },
    {
      "bufferView": 0,
      "byteOffset": 4392,
      "componentType": 5125,
      "count": 210,
      "type": "SCALAR"
    },
    {
      "bufferView": 2,
      "byteOffset": 21912,
      "componentType": 5126,
      "count": 21,
      "max": [
        3.75,
        3.075000047683716,
        5.0
      ],
      "min": [
        1.25,
        0.5749995708465576,
        2.5
      ],
      "type": "VEC3"
    },
    {
      "bufferView": 2,
      "byteOffset": 22164,
      "componentType": 5126,
      "count": 21,
      "max": [
        1.0,
        0.0,
        1.0
      ],
      "min": [
        -1.0,
        -1.0,
        -1.0
      ],
      "type": "VEC3"
    },
    {
      "bufferView": 3,
      "byteOffset": 11472,
      "componentType": 5126,
      "count": 21,
      "max": [
        1.0,
        1.0,
        0.0,
        1.0
      ],
      "min": [
        0.0,
        -1.0,
        0.0,
        1.0
      ],
      "type": "VEC4"
    },
    {
      "bufferView": 1,
      "byteOffset": 14608,
      "componentType": 5126,
      "count": 21,
      "max": [
        1.0,
        1.0
      ],
      "min": [
        0.0,
        0.0
      ],
      "type": "VEC2"
    },
    {
      "bufferView": 1,
      "byteOffset": 14776,
      "componentType": 5126,
      "count": 21,
      "max": [
        0.5235890746116638,
        0.6547366976737976
      ],
      "min": [
        0.0010010000551119447,
        0.5911650061607361
      ],
      "type": "VEC2"
    },
    {
      "bufferView": 0,
      "byteOffset": 5232,
      "componentType": 5125,
      "count": 33,
      "type": "SCALAR"
    },
    {
      "bufferView": 2,
      "byteOffset": 22416,
      "componentType": 5126,
      "count": 8,
      "max": [
        -4.375,
        -21.924999237060547,
        4.375
      ],
      "min": [
        -7.5,
        -21.924999237060547,
        1.25
      ],
      "type": "VEC3"
    },
    {
      "bufferView": 2,
      "byteOffset": 22512,
      "componentType": 5126,
      "count": 8,
      "max": [
        0.0,
        1.0,
        0.0
      ],
      "min": [
        0.0,
        1.0,
        0.0
      ],
      "type": "VEC3"
    },
    {
      "bufferView": 1,
      "byteOffset": 14944,
      "componentType": 5126,
      "count": 8,
      "max": [
        1.0,
        1.5
      ],
      "min": [
        0.0,
        0.0
      ],
      "type": "VEC2"
    },
    {
      "bufferView": 1,
      "byteOffset": 15008,
      "componentType": 5126,
      "count": 8,
      "max": [
        0.9498186707496643,
        0.8186711072921753
      ],
      "min": [
        0.9190338253974915,
        0.19672130048274994
      ],
      "type": "VEC2"
    },
    {
      "bufferView": 0,
      "byteOffset": 5364,
      "componentType": 5125,
      "count": 12,
      "type": "SCALAR"
    },
    {
      "bufferView": 2,
      "byteOffset": 22608,
      "componentType": 5126,
      "count": 37,
      "max": [
        3.75,
        0.5749995708465576,
        5.0
      ],
      "min": [
        -10.0,
        -21.924999237060547,
        0.0
      ],
      "type": "VEC3"
    },
    {
      "bufferView": 2,
      "byteOffset": 23052,
      "componentType": 5126,
      "count": 37,
      "max": [
        1.0,
        0.0,
        0.0
      ],
      "min": [
        0.0,
        -1.0,
        -1.0
      ],
      "type": "VEC3"
    },
    {
      "bufferView": 3,
      "byteOffset": 11808,
      "componentType": 5126,
      "count": 37,
      "max": [
        1.0,
        1.0,
        0.0,
        1.0
      ],
      "min": [
        0.0,
        -1.0,
        0.0,
        1.0
      ],
      "type": "VEC4"
    },
    {
      "bufferView": 1,
      "byteOffset": 15072,
      "componentType": 5126,
      "count": 37,
      "max": [
        1.25,
        2.0
      ],
      "min": [
        -0.25,
        -1.0
      ],
      "type": "VEC2"
    },
    {
      "bufferView": 0,
      "byteOffset": 5412,
      "componentType": 5125,
      "count": 72,
      "type": "SCALAR"
    },
    {
      "bufferView": 2,
      "byteOffset": 23496,
      "componentType": 5126,
      "count": 2,
      "max": [
        6.875,
        -6.299999237060547,
        5.0
      ],
      "min": [
        6.875,
        -16.299999237060547,
        5.0
      ],
      "type": "VEC3"
    },
    {
      "bufferView": 0,
      "byteOffset": 5700,
      "componentType": 5125,
      "count": 2,
      "type": "SCALAR"
    },
    {
      "bufferView": 2,
      "byteOffset": 23520,
      "componentType": 5126,
      "count": 136,
      "max": [
        6.875,
        -0.04999922960996628,
        5.0
      ],
      "min": [
        -10.0,
        -19.424999237060547,
        4.800000190734863
      ],
      "type": "VEC3"
    },
    {
      "bufferView": 2,
      "byteOffset": 25152,
      "componentType": 5126,
      "count": 136,
      "max": [
        1.0,
        1.0,
        0.0
      ],
      "min": [
        -1.0,
        -1.0,
        -1.0
      ],
      "type": "VEC3"
    },
    {
      "bufferView": 3,
      "byteOffset": 12400,
      "componentType": 5126,
      "count": 136,
      "max": [
        1.0,
        1.0,
        0.0,
        1.0
      ],
      "min": [
        -1.0,
        -1.0,
        0.0,
        1.0
      ],
      "type": "VEC4"
    },
    {
      "bufferView": 1,
      "byteOffset": 15368,
      "componentType": 5126,
      "count": 136,
      "max": [
        1.0,
        1.0
      ],
      "min": [
        0.0,
        0.0
      ],
      "type": "VEC2"
    },
    {
      "bufferView": 1,
      "byteOffset": 16456,
      "componentType": 5126,
      "count": 136,
      "max": [
        0.9498186707496643,
        0.9826055765151978
      ],
      "min": [
        0.06657475233078003,
        0.0010010000551119447
      ],
      "type": "VEC2"
    },
    {
      "bufferView": 0,
      "byteOffset": 5708,
      "componentType": 5125,
      "count": 222,
      "type": "SCALAR"
    },
    {
      "bufferView": 2,
      "byteOffset": 26784,
      "componentType": 5126,
      "count": 16,
      "max": [
        4.375,
        -8.800000190734863,
        5.0
      ],
      "min": [
        -10.0,
        -21.299999237060547,
        4.800000190734863
      ],
      "type": "VEC3"
    },
    {
      "bufferView": 2,
      "byteOffset": 26976,
      "componentType": 5126,
      "count": 16,
      "max": [
        0.0,
        0.0,
        -1.0
      ],
      "min": [
        0.0,
        0.0,
        -1.0
      ],
      "type": "VEC3"
    },
    {
      "bufferView": 3,
      "byteOffset": 14576,
      "componentType": 5126,
      "count": 16,
      "max": [
        1.0,
        0.0,
        0.0,
        1.0
      ],
      "min": [
        1.0,
        0.0,
        0.0,
        1.0
      ],
      "type": "VEC4"
    },
    {
      "bufferView": 1,
      "byteOffset": 17544,
      "componentType": 5126,
      "count": 16,
      "max": [
        0.9006384015083313,
        0.9826055765151978
      ],
      "min": [
        0.06657475233078003,
        0.3288697898387909
      ],
      "type": "VEC2"
    },
    {
      "bufferView": 1,
      "byteOffset": 17672,
      "componentType": 5126,
      "count": 16,
      "max": [
        1.0,
        1.0
      ],
      "min": [
        0.5,
        0.0
      ],
      "type": "VEC2"
    },
    {
      "bufferView": 0,
      "byteOffset": 6596,
      "componentType": 5125,
      "count": 24,
      "type": "SCALAR"
    },
    {
      "bufferView": 2,
      "byteOffset": 27168,
      "componentType": 5126,
      "count": 115,
      "max": [
        -5.0,
        -6.299999237060547,
        5.099999904632568
      ],
      "min": [
        -10.0,
        -21.924999237060547,
        5.0
      ],
      "type": "VEC3"
    },
    {
      "bufferView": 2,
      "byteOffset": 28548,
      "componentType": 5126,
      "count": 115,
      "max": [
        0.894426703453064,
        0.8944345116615295,
        -0.44719210267066956
      ],
      "min": [
        -0.8944280743598938,
        -0.8944380283355713,
        -1.0
      ],
      "type": "VEC3"
    },
    {
      "bufferView": 1,
      "byteOffset": 17800,
      "componentType": 5126,
      "count": 115,
      "max": [
        0.5,
        0.5
      ],
      "min": [
        0.5,
        0.5
      ],
      "type": "VEC2"
    },
    {
      "bufferView": 1,
      "byteOffset": 18720,
      "componentType": 5126,
      "count": 115,
      "max": [
        1.0,
        1.0
      ],
      "min": [
        0.0,
        0.0
      ],
      "type": "VEC2"
    },
    {
      "bufferView": 0,
      "byteOffset": 6692,
      "componentType": 5125,
      "count": 123,
      "type": "SCALAR"
    },
    {
      "bufferView": 2,
      "byteOffset": 29928,
      "componentType": 5126,
      "count": 180,
      "max": [
        7.5,
        0.5750008225440979,
        5.0
      ],
      "min": [
        -10.0,
        -21.924999237060547,
        5.0
      ],
      "type": "VEC3"
    },
    {
      "bufferView": 2,
      "byteOffset": 32088,
      "componentType": 5126,
      "count": 180,
      "max": [
        0.0,
        0.0,
        -1.0
      ],
      "min": [
        0.0,
        0.0,
        -1.0
      ],
      "type": "VEC3"
    },
    {
      "bufferView": 3,
      "byteOffset": 14832,
      "componentType": 5126,
      "count": 180,
      "max": [
        1.0,
        1.5259904557751724e-06,
        0.0,
        1.0
      ],
      "min": [
        1.0,
        -3.814697265625e-06,
        0.0,
        1.0
      ],
      "type": "VEC4"
    },
    {
      "bufferView": 1,
      "byteOffset": 19640,
      "componentType": 5126,
      "count": 180,
      "max": [
        3.749998092651367,
        5.000001907348633
      ],
      "min": [
        -2.5288301230830257e-07,
        -5.500003814697266
      ],
      "type": "VEC2"
    },
    {
      "bufferView": 1,
      "byteOffset": 21080,
      "componentType": 5126,
      "count": 180,
      "max": [
        0.9826055765151978,
        0.9979979991912842
      ],
      "min": [
        0.0010010000551119447,
        0.0010010000551119447
      ],
      "type": "VEC2"
    },
    {
      "bufferView": 0,
      "byteOffset": 7184,
      "componentType": 5125,
      "count": 288,
      "type": "SCALAR"
    },
    {
      "bufferView": 2,
      "byteOffset": 34248,
      "componentType": 5126,
      "count": 79,
      "max": [
        7.5,
        0.5749998092651367,
        0.0
      ],
      "min": [
        -10.0,
        -21.924999237060547,
        0.0
      ],
      "type": "VEC3"
    },
    {
      "bufferView": 2,
      "byteOffset": 35196,
      "componentType": 5126,
      "count": 79,
      "max": [
        0.0,
        0.0,
        1.0
      ],
      "min": [
        0.0,
        0.0,
        1.0
      ],
      "type": "VEC3"
    },
    {
      "bufferView": 3,
      "byteOffset": 17712,
      "componentType": 5126,
      "count": 79,
      "max": [
        1.0,
        7.266093859925604e-08,
        0.0,
        1.0
      ],
      "min": [
        1.0,
        -2.71268163487548e-06,
        0.0,
        1.0
      ],
      "type": "VEC4"
    },
    {
      "bufferView": 1,
      "byteOffset": 22520,
      "componentType": 5126,
      "count": 79,
      "max": [
        4.250001907348633,
        5.250003814697266
      ],
      "min": [
        -2.75,
        -3.7499990463256836
      ],
      "type": "VEC2"
    },
    {
      "bufferView": 1,
      "byteOffset": 23152,
      "componentType": 5126,
      "count": 79,
      "max": [
        0.802277684211731,
        0.802277684211731
      ],
      "min": [
        0.0010010000551119447,
        0.0010010000551119447
      ],
      "type": "VEC2"
    },
    {
      "bufferView": 0,
      "byteOffset": 8336,
      "componentType": 5125,
      "count": 153,
      "type": "SCALAR"
    },
    {
      "bufferView": 2,
      "byteOffset": 36144,
      "componentType": 5126,
      "count": 4,
      "max": [
        4.374948024749756,
        -8.799962997436523,
        0.0
      ],
      "min": [
        2.4999539852142334,
        -10.675000190734863,
        0.0
      ],
      "type": "VEC3"
    },
    {
      "bufferView": 2,
      "byteOffset": 36192,
      "componentType": 5126,
      "count": 4,
      "max": [
        0.0,
        0.0,
        1.0
      ],
      "min": [
        0.0,
        0.0,
        1.0
      ],
      "type": "VEC3"
    },
    {
      "bufferView": 3,
      "byteOffset": 18976,
      "componentType": 5126,
      "count": 4,
      "max": [
        1.0,
        0.0,
        0.0,
        1.0
      ],
      "min": [
        1.0,
        0.0,
        0.0,
        1.0
      ],
      "type": "VEC4"
    },
    {
      "bufferView": 1,
      "byteOffset": 23784,
      "componentType": 5126,
      "count": 4,
      "max": [
        0.15717840194702148,
        0.4999242126941681
      ],
      "min": [
        0.07908891886472702,
        0.4289354085922241
      ],
      "type": "VEC2"
    },
    {
      "bufferView": 1,
      "byteOffset": 23816,
      "componentType": 5126,
      "count": 4,
      "max": [
        1.0,
        1.0
      ],
      "min": [
        0.625,
        0.625
      ],
      "type": "VEC2"
    },
    {
      "bufferView": 0,
      "byteOffset": 8948,
      "componentType": 5125,
      "count": 6,
      "type": "SCALAR"
    },
    {
      "bufferView": 2,
      "byteOffset": 36240,
      "componentType": 5126,
      "count": 26,
      "max": [
        4.248041152954102,
        0.5952392220497131,
        4.794283866882324
      ],
      "min": [
        -2.5750861167907715,
        -16.917749404907227,
        -0.018939850851893425
      ],
      "type": "VEC3"
    },
    {
      "bufferView": 2,
      "byteOffset": 36552,
      "componentType": 5126,
      "count": 26,
      "max": [
        0.47960165143013,
        1.0,
        1.0
      ],
      "min": [
        -1.0,
        -0.8774862885475159,
        0.0
      ],
      "type": "VEC3"
    },
    {
      "bufferView": 1,
      "byteOffset": 23848,
      "componentType": 5126,
      "count": 26,
      "max": [
        1.0,
        1.0
      ],
      "min": [
        0.0,
        -3.151655912399292
      ],
      "type": "VEC2"
    },
    {
      "bufferView": 0,
      "byteOffset": 8972,
      "componentType": 5125,
      "count": 36,
      "type": "SCALAR"
    }
  ],
  "asset": {
    "extras": {
      "author": "Jack Kelly (https://sketchfab.com/slightlyintelligent)",
      "license": "CC-BY-4.0 (http://creativecommons.org/licenses/by/4.0/)",
      "source": "https://sketchfab.com/3d-models/3december-2020-portal-test-chamber-65518f8e657f4194935d4dc67b82c278",
      "title": "3December 2020 - Portal Test Chamber"
    },
    "generator": "Sketchfab-12.66.0",
    "version": "2.0"
  },
  "bufferViews": [
    {
      "buffer": 0,
      "byteLength": 9116,
      "name": "floatBufferViews",
      "target": 34963
    },
    {
      "buffer": 0,
      "byteLength": 24056,
      "byteOffset": 9116,
      "byteStride": 8,
      "name": "floatBufferViews",
      "target": 34962
    },
    {
      "buffer": 0,
      "byteLength": 36864,
      "byteOffset": 33172,
      "byteStride": 12,
      "name": "floatBufferViews",
      "target": 34962
    },
    {
      "buffer": 0,
      "byteLength": 19040,
      "byteOffset": 70036,
      "byteStride": 16,
      "name": "floatBufferViews",
      "target": 34962
    }
  ],
  "buffers": [
    {
      "byteLength": 89076,
      "uri": "scene.bin"
    }
  ],
  "extensionsUsed": [
    "KHR_materials_transmission"
  ],
  "images": [
    {
      "uri": "textures/Laser_baseColor.png"
    },
    {
      "uri": "textures/Laser_emissive.jpeg"
    },
    {
      "uri": "textures/Floor_baseColor.jpeg"
    },
    {
      "uri": "textures/Floor_metallicRoughness.png"
    },
    {
      "uri": "textures/Floor_emissive.jpeg"
    },
    {
      "uri": "textures/Floor_normal.jpeg"
    },
    {
      "uri": "textures/Dark_normal.png"
    },
    {
      "uri": "textures/White_baseColor.jpeg"
    },
    {
      "uri": "textures/White_normal.jpeg"
    },
    {
      "uri": "textures/Light_emissive.png"
    },
    {
      "uri": "textures/Glass_normal.png"
    },
    {
      "uri": "textures/Display_emissive.png"
    }
  ],
  "materials": [
    {
      "doubleSided": true,
      "name": "material_0",
      "pbrMetallicRoughness": {
        "metallicFactor": 0.0,
        "roughnessFactor": 0.6
      }
    },
    {
      "alphaMode": "BLEND",
      "doubleSided": true,
      "emissiveFactor": [
        1.0,
        1.0,
        1.0
      ],
      "emissiveTexture": {
        "index": 1
      },
      "name": "Laser",
      "pbrMetallicRoughness": {
        "baseColorFactor": [
          0.0,
          0.0,
          0.0,
          0.25
        ],
        "baseColorTexture": {
          "index": 0
        },
        "metallicFactor": 0.0
      }
    },
    {
      "emissiveFactor": [
        0.25,
        0.25,
        0.25
      ],
      "emissiveTexture": {
        "index": 4,
        "texCoord": 1
      },
      "name": "Floor",
      "normalTexture": {
        "index": 5
      },
      "occlusionTexture": {
        "index": 3,
        "texCoord": 1
      },
      "pbrMetallicRoughness": {
        "baseColorTexture": {
          "index": 2
        },
        "metallicFactor": 0.0,
        "metallicRoughnessTexture": {
          "index": 3,
          "texCoord": 1
        },
        "roughnessFactor": 0.75
      }
    },
    {
      "emissiveFactor": [
        0.15,
        0.15,
        0.15
      ],
      "emissiveTexture": {
        "index": 4
      },
      "name": "Dark",
      "normalTexture": {
        "index": 6,
        "texCoord": 1
      },
      "occlusionTexture": {
        "index": 3
      },
      "pbrMetallicRoughness": {
        "baseColorFactor": [
          0.1328683216,
          0.1328683216,
          0.1328683216,
          1.0
        ],
        "metallicRoughnessTexture": {
          "index": 3
        },
        "roughnessFactor": 0.6
      }
    },
    {
      "emissiveFactor": [
        0.25,
        0.25,
        0.25
      ],
      "emissiveTexture": {
        "index": 4,
        "texCoord": 1
      },
      "name": "White",
      "normalTexture": {
        "index": 8,
        "scale": 0.5
      },
      "occlusionTexture": {
        "index": 3,
        "texCoord": 1
      },
      "pbrMetallicRoughness": {
        "baseColorTexture": {
          "index": 7
        },
        "metallicFactor": 0.0,
        "metallicRoughnessTexture": {
          "index": 3,
          "texCoord": 1
        },
        "roughnessFactor": 0.75
      }
    },
    {
      "emissiveFactor": [
        1.0,
        1.0,
        1.0
      ],
      "emissiveTexture": {
        "index": 9,
        "texCoord": 1
      },
      "name": "Light",
      "occlusionTexture": {
        "index": 3
      },
      "pbrMetallicRoughness": {
        "baseColorFactor": [
          0.0,
          0.0,
          0.0,
          1.0
        ],
        "metallicRoughnessTexture": {
          "index": 3
        },
        "roughnessFactor": 0.6
      }
    },
    {
      "alphaMode": "BLEND",
      "extensions": {
        "KHR_materials_transmission": {
          "transmissionFactor": 0.9
        }
      },
      "name": "Glass",
      "normalTexture": {
        "index": 10,
        "scale": 0.75
      },
      "pbrMetallicRoughness": {
        "baseColorFactor": [
          0.8,
          0.8,
          0.8,
          0.25
        ],
        "metallicFactor": 0.0,
        "roughnessFactor": 0.1
      }
    },
    {
      "emissiveFactor": [
        0.75,
        0.75,
        0.75
      ],
      "emissiveTexture": {
        "index": 4,
        "texCoord": 1
      },
      "name": "Room",
      "normalTexture": {
        "index": 8
      },
      "pbrMetallicRoughness": {
        "baseColorTexture": {
          "index": 7
        },
        "metallicFactor": 0.0,
        "roughnessFactor": 0.75
      }
    },
    {
      "emissiveFactor": [
        1.0,
        1.0,
        1.0
      ],
      "emissiveTexture": {
        "index": 11
      },
      "name": "Display",
      "pbrMetallicRoughness": {
        "baseColorFactor": [
          0.0,
          0.0,
          0.0,
          1.0
        ],
        "metallicFactor": 0.0,
        "roughnessFactor": 0.5
      }
    }
  ],
  "meshes": [
    {
      "name": "White-material",
      "primitives": [
        {
          "attributes": {
            "NORMAL": 1,
            "POSITION": 0,
            "TANGENT": 2,
            "TEXCOORD_0": 3,
            "TEXCOORD_1": 4
          },
          "indices": 5,
          "material": 4,
          "mode": 4
        }
      ]
    },
    {
      "name": "Dark-material",
      "primitives": [
        {
          "attributes": {
            "NORMAL": 7,
            "POSITION": 6,
            "TANGENT": 8,
            "TEXCOORD_0": 9,
            "TEXCOORD_1": 10
          },
          "indices": 11,
          "material": 3,
          "mode": 4
        }
      ]
    },
    {
      "name": "Light-material",
      "primitives": [
        {
          "attributes": {
            "NORMAL": 13,
            "POSITION": 12,
            "TEXCOORD_0": 14,
            "TEXCOORD_1": 15
          },
          "indices": 16,
          "material": 5,
          "mode": 4
        }
      ]
    },
    {
      "name": "Room-material",
      "primitives": [
        {
          "attributes": {
            "NORMAL": 18,
            "POSITION": 17,
            "TANGENT": 19,
            "TEXCOORD_0": 20,
            "TEXCOORD_1": 21
          },
          "indices": 22,
          "material": 7,
          "mode": 4
        }
      ]
    },
    {
      "name": "Display-material",
      "primitives": [
        {
          "attributes": {
            "NORMAL": 24,
            "POSITION": 23,
            "TEXCOORD_0": 25,
            "TEXCOORD_1": 26
          },
          "indices": 27,
          "material": 8,
          "mode": 4
        }
      ]
    },
    {
      "name": "Glass-material",
      "primitives": [
        {
          "attributes": {
            "NORMAL": 29,
            "POSITION": 28,
            "TANGENT": 30,
            "TEXCOORD_0": 31
          },
          "indices": 32,
          "material": 6,
          "mode": 4
        }
      ]
    },
    {
      "name": "Object_6",
      "primitives": [
        {
          "attributes": {
            "POSITION": 33
          },
          "indices": 34,
          "material": 0,
          "mode": 1
        }
      ]
    },
    {
      "name": "White-material",
      "primitives": [
        {
          "attributes": {
            "NORMAL": 36,
            "POSITION": 35,
            "TANGENT": 37,
            "TEXCOORD_0": 38,
            "TEXCOORD_1": 39
          },
          "indices": 40,
          "material": 4,
          "mode": 4
        }
      ]
    },
    {
      "name": "Dark-material",
      "primitives": [
        {
          "attributes": {
            "NORMAL": 42,
            "POSITION": 41,
            "TANGENT": 43,
            "TEXCOORD_0": 44,
            "TEXCOORD_1": 45
          },
          "indices": 46,
          "material": 3,
          "mode": 4
        }
      ]
    },
    {
      "name": "Light-material",
      "primitives": [
        {
          "attributes": {
            "NORMAL": 48,
            "POSITION": 47,
            "TEXCOORD_0": 49,
            "TEXCOORD_1": 50
          },
          "indices": 51,
          "material": 5,
          "mode": 4
        }
      ]
    },
    {
      "name": "Floor-material",
      "primitives": [
        {
          "attributes": {
            "NORMAL": 53,
            "POSITION": 52,
            "TANGENT": 54,
            "TEXCOORD_0": 55,
            "TEXCOORD_1": 56
          },
          "indices": 57,
          "material": 2,
          "mode": 4
        }
      ]
    },
    {
      "name": "Floor-material",
      "primitives": [
        {
          "attributes": {
            "NORMAL": 59,
            "POSITION": 58,
            "TANGENT": 60,
            "TEXCOORD_0": 61,
            "TEXCOORD_1": 62
          },
          "indices": 63,
          "material": 2,
          "mode": 4
        }
      ]
    },
    {
      "name": "Dark-material",
      "primitives": [
        {
          "attributes": {
            "NORMAL": 65,
            "POSITION": 64,
            "TANGENT": 66,
            "TEXCOORD_0": 67,
            "TEXCOORD_1": 68
          },
          "indices": 69,
          "material": 3,
          "mode": 4
        }
      ]
    },
    {
      "name": "Laser-material",
      "primitives": [
        {
          "attributes": {
            "NORMAL": 71,
            "POSITION": 70,
            "TEXCOORD_0": 72
          },
          "indices": 73,
          "material": 1,
          "mode": 4
        }
      ]
    }
  ],
  "nodes": [
    {
      "children": [
        1
      ],
      "matrix": [
        1.0,
        0.0,
        0.0,
        0.0,
        0.0,
        2.220446049250313e-16,
        -1.0,
        0.0,
        0.0,
        1.0,
        2.220446049250313e-16,
        0.0,
        0.0,
        0.0,
        0.0,
        1.0
      ],
      "name": "Sketchfab_model"
    },
    {
      "children": [
        2,
        8,
        10,
        16,
        19
      ],
      "name": "Collada visual scene group"
    },
    {
      "children": [
        3,
        4,
        5,
        6,
        7
      ],
      "name": "Walls"
    },
    {
      "mesh": 0,
      "name": "White-material"
    },
    {
      "mesh": 1,
      "name": "Dark-material"
    },
    {
      "mesh": 2,
      "name": "Light-material"
    },
    {
      "mesh": 3,
      "name": "Room-material"
    },
    {
      "mesh": 4,
      "name": "Display-material"
    },
    {
      "children": [
        9
      ],
      "name": "Glass"
    },
    {
      "mesh": 5,
      "name": "Glass-material"
    },
    {
      "children": [
        11,
        12,
        13,
        14,
        15
      ],
      "name": "Ceiling"
    },
    {
      "mesh": 6,
      "name": "Object_11"
    },
    {
      "mesh": 7,
      "name": "White-material"
    },
    {
      "mesh": 8,
      "name": "Dark-material"
    },
    {
      "mesh": 9,
      "name": "Light-material"
    },
    {
      "mesh": 10,
      "name": "Floor-material"
    },
    {
      "children": [
        17,
        18
      ],
      "name": "Floor"
    },
    {
      "mesh": 11,
      "name": "Floor-material"
    },
    {
      "mesh": 12,
      "name": "Dark-material"
    },
    {
      "children": [
        20
      ],
      "name": "Lasers"
    },
    {
      "mesh": 13,
      "name": "Laser-material"
    }
  ],
  "samplers": [
    {
      "magFilter": 9729,
      "minFilter": 9987,
      "wrapS": 10497,
      "wrapT": 10497
    }
  ],
  "scene": 0,
  "scenes": [
    {
      "name": "Sketchfab_Scene",
      "nodes": [
        0
      ]
    }
  ],
  "textures": [
    {
      "sampler": 0,
      "source": 0
    },
    {
      "sampler": 0,
      "source": 1
    },
    {
      "sampler": 0,
      "source": 2
    },
    {
      "sampler": 0,
      "source": 3
    },
    {
      "sampler": 0,
      "source": 4
    },
    {
      "sampler": 0,
      "source": 5
    },
    {
      "sampler": 0,
      "source": 6
    },
    {
      "sampler": 0,
      "source": 7
    },
    {
      "sampler": 0,
      "source": 8
    },
    {
      "sampler": 0,
      "source": 9
    },
    {
      "sampler": 0,
      "source": 10
    },
    {
      "sampler": 0,
      "source": 11
    }
  ]
}
